<svg width="15" height="17" viewBox="0 0 15 17" fill="none" xmlns="http://www.w3.org/2000/svg">
<path d="M14.3333 16V15.1667C14.3333 14.2462 13.5872 13.5 12.6667 13.5H9.33333C8.41283 13.5 7.66667 14.2462 7.66667 15.1667V16M5.16667 7.66667H1M10.1667 2.66667H12.6667C13.5872 2.66667 14.3333 3.41286 14.3333 4.33333V6M2.66667 2.66667C1.74619 2.66667 1 3.41286 1 4.33333V14.3333C1 15.2538 1.74619 16 2.66667 16H5.16667M10.1667 1V4.33333M5.16667 1V4.33333M5.16667 2.66667H7.66667M12.6667 9.33333C12.6667 10.2538 11.9205 11 11 11C10.0795 11 9.33333 10.2538 9.33333 9.33333C9.33333 8.41283 10.0795 7.66667 11 7.66667C11.9205 7.66667 12.6667 8.41283 12.6667 9.33333Z" stroke="#00C2C1" stroke-linecap="round"/>
</svg>
