<svg width="320" height="80" viewBox="0 0 320 80" fill="none" xmlns="http://www.w3.org/2000/svg">
<mask id="mask0_340_7349" style="mask-type:alpha" maskUnits="userSpaceOnUse" x="0" y="0" width="320" height="80">
<rect x="0.5" y="0.5" width="319" height="79" rx="13.5" fill="white" stroke="#EEF2F5"/>
</mask>
<g mask="url(#mask0_340_7349)">
<path d="M284.727 41.7429C284.507 39.5178 288.037 39.8698 290.598 42.7553C290.598 42.7553 285.053 45.0314 284.727 41.7429Z" fill="#09AEB4"/>
<path d="M281.307 33.8887C282.277 31.5756 285.16 33.0756 287.987 36.8019C286.29 38.5743 280.313 36.2601 281.307 33.8887Z" fill="#09AEB4"/>
<path d="M278.76 27.8133C279.24 26.7362 280.921 26.4776 282.82 27.6543C284.355 28.6052 285.501 31.6413 285.501 31.6413C285.501 31.6413 283.696 32.288 281.287 30.9162C279.782 30.0586 278.439 28.5352 278.76 27.8144V27.8133Z" fill="#09AEB4"/>
<path d="M276.356 24.1698C275.955 22.9146 277.728 22.2976 278.863 22.8319C279.577 23.168 280.873 24.7072 281.152 24.8302C281.152 24.8302 277.168 26.7161 276.356 24.1698Z" fill="#09AEB4"/>
<path d="M274.671 16.8837C274.553 15.7728 276.158 13.9197 278.146 16.4989C279.545 18.3149 279.836 21.8195 279.866 21.9128C279.895 22.0061 275.081 20.7616 274.671 16.8837Z" fill="#09AEB4"/>
<path d="M285.097 19.9421C285.427 22.9199 284.247 24.7051 284.247 24.7051C284.247 24.7051 281.363 21.1284 282.048 18.7537C282.733 16.3791 284.768 16.9643 285.098 19.9432L285.097 19.9421Z" fill="#09AEB4"/>
<path d="M288.685 22.5022C290.267 22.145 291.187 25.0698 289.386 29.8179C289.386 29.8179 285.329 23.2602 288.685 22.5022Z" fill="#09AEB4"/>
<path d="M293.259 29.783C294.995 29.9441 294.876 34.1368 292.975 35.8011C292.975 35.8011 290.506 29.5275 293.259 29.783Z" fill="#09AEB4"/>
<path d="M297.389 35.6644C297.184 34.3806 295.045 35.1926 294.461 36.7997C293.913 38.3093 294.646 40.7104 294.646 40.7104C294.646 40.7104 297.883 38.7651 297.389 35.6633V35.6644Z" fill="#09AEB4"/>
<path d="M293.337 41.286C293.743 42.5656 294.118 43.8949 294.46 45.2741C296.277 52.6015 296.54 58.8412 296.543 58.9037L296.152 58.9196C296.15 58.8582 295.887 52.6513 294.078 45.3621C293.017 41.0857 291.64 37.2789 289.984 34.0477C287.919 30.0183 285.415 26.8794 282.539 24.7168C282.143 24.4189 281.777 24.103 281.452 23.7786L279.727 22.0517L280.003 21.775L281.729 23.5019C282.041 23.8136 282.393 24.1178 282.773 24.404C285.697 26.6027 288.241 29.7893 290.333 33.8728C291.468 36.0884 292.473 38.5711 293.336 41.2871L293.337 41.286Z" fill="#09AEB4"/>
<path d="M294.895 40.6055L293.727 43.0426L290.5 42.9801L290.509 42.5889L293.484 42.6461L294.542 40.4359L294.895 40.6055Z" fill="#09AEB4"/>
<path d="M293.306 35.5319L292.375 38.9899L287.569 36.8835L287.726 36.5252L292.115 38.4482L292.928 35.4301L293.306 35.5319Z" fill="#09AEB4"/>
<path d="M289.552 29.783L289.676 32.994L285.253 31.7802L285.356 31.4028L289.263 32.4745L289.16 29.7978L289.552 29.783Z" fill="#09AEB4"/>
<path d="M284.426 24.3341L284.37 26.2645L284.049 25.9486C284.04 25.9391 283.028 24.9754 281.098 25.0062L281.092 24.615C282.562 24.5917 283.535 25.0952 284.003 25.4154L284.035 24.3235L284.426 24.3351V24.3341Z" fill="#09AEB4"/>
<path d="M290.927 42.8317L290.672 42.9366C290.529 42.9949 287.153 44.3603 285.459 43.3416C284.916 43.014 284.604 42.4829 284.532 41.762C284.461 41.0475 284.742 40.5143 285.323 40.2609C286.499 39.7468 288.85 40.4899 290.744 42.6249L290.927 42.8317ZM285.011 42.1744C285.128 42.5401 285.342 42.8147 285.661 43.0055C286.933 43.7709 289.439 42.9695 290.258 42.6737C288.54 40.8567 286.469 40.1867 285.481 40.6192C285.057 40.8048 284.869 41.1758 284.923 41.7228C284.939 41.8861 284.969 42.0366 285.012 42.1733L285.011 42.1744Z" fill="#09AEB4"/>
<path d="M288.244 36.8167L288.129 36.9375C287.023 38.092 284.222 37.6595 282.456 36.5018C281.232 35.6993 280.747 34.7188 281.126 33.8134C281.423 33.1042 281.917 32.6876 282.554 32.606C283.979 32.4258 286.068 33.9491 288.143 36.6831L288.243 36.8167H288.244ZM281.452 34.8004C281.655 35.4375 282.317 35.9421 282.67 36.1732C284.211 37.1835 286.678 37.633 287.723 36.7785C285.798 34.2831 283.845 32.836 282.603 32.994C282.105 33.0565 281.73 33.383 281.486 33.964C281.363 34.2587 281.369 34.5407 281.451 34.8004H281.452Z" fill="#09AEB4"/>
<path d="M285.754 31.7579L285.567 31.8247C285.489 31.8523 283.649 32.4851 281.191 31.0848C280.433 30.6533 279.703 30.0533 279.189 29.4384C278.615 28.7504 278.398 28.1451 278.582 27.7327C278.783 27.279 279.167 26.9546 279.689 26.7935C280.587 26.5168 281.767 26.7691 282.924 27.4857C284.498 28.461 285.637 31.4441 285.684 31.5703L285.754 31.7569V31.7579ZM278.952 28.3052C279.162 28.9656 280.109 30.0183 281.385 30.7445C283.229 31.795 284.716 31.619 285.237 31.5077C284.953 30.8219 283.954 28.5861 282.717 27.8197C281.656 27.1624 280.595 26.925 279.804 27.1688C279.393 27.2949 279.094 27.5462 278.939 27.8928C278.892 27.9978 278.899 28.1398 278.951 28.3052H278.952Z" fill="#09AEB4"/>
<path d="M281.598 24.8302L281.235 25.0072C281.136 25.0539 278.791 26.1479 277.269 25.4864C276.731 25.2521 276.36 24.8291 276.169 24.2291C276.169 24.2291 276.169 24.2291 276.169 24.2281C276.01 23.7277 276.137 23.2644 276.527 22.922C277.112 22.4089 278.176 22.2913 278.946 22.6549C279.413 22.8743 280.068 23.5295 280.594 24.0563C280.841 24.3033 281.149 24.6118 281.232 24.6521L281.598 24.8313V24.8302ZM276.542 24.1104C276.7 24.6055 276.988 24.9373 277.425 25.127C278.49 25.5903 280.111 25.0422 280.772 24.7793C280.655 24.6712 280.509 24.5249 280.316 24.333C279.838 23.8549 279.184 23.1998 278.779 23.009C278.149 22.7121 277.253 22.8054 276.785 23.2167C276.511 23.4563 276.43 23.7563 276.542 24.1093C276.542 24.1093 276.542 24.1093 276.542 24.1104Z" fill="#09AEB4"/>
<path d="M279.395 18.6329C279.65 19.4375 279.88 20.4552 280.04 21.74C280.048 21.8036 280.053 21.8471 280.056 21.8662C280.073 21.9351 280.053 22.0072 280.001 22.057C279.935 22.1195 279.862 22.1906 279.031 21.8863C278.048 21.5269 274.816 20.1043 274.478 16.9049C274.412 16.2816 274.819 15.4176 275.591 15.1091C276.085 14.9109 277.095 14.8134 278.303 16.3813C278.641 16.8201 279.044 17.524 279.397 18.635L279.395 18.6329ZM279.638 21.6775C279.263 18.7792 278.537 17.3279 277.991 16.6187C277.213 15.6084 276.412 15.2014 275.735 15.4717C275.152 15.7049 274.815 16.3791 274.866 16.8636C275.201 20.028 278.658 21.4199 279.636 21.6775H279.638Z" fill="#09AEB4"/>
<path d="M285.061 18.7951C285.168 19.1322 285.247 19.5096 285.292 19.9209C285.626 22.9348 284.46 24.738 284.41 24.8132L284.263 25.0369L284.094 24.8281C284.065 24.791 283.354 23.9058 282.718 22.7121C281.85 21.0849 281.562 19.7354 281.86 18.6997C282.167 17.6343 282.774 17.0332 283.484 17.0936C284.171 17.1519 284.741 17.7901 285.06 18.7951H285.061ZM284.903 19.9644C284.776 18.8184 284.268 17.5537 283.451 17.4848C282.941 17.4413 282.487 17.9364 282.236 18.8089C281.686 20.7213 283.613 23.5284 284.222 24.35C284.514 23.7712 285.151 22.2097 284.903 19.9654V19.9644Z" fill="#09AEB4"/>
<path d="M290.352 23.5994C290.738 24.8143 290.694 26.9175 289.568 29.8869L289.427 30.2579L289.219 29.9197C289.105 29.7374 286.463 25.426 287.337 23.344C287.565 22.8022 288.003 22.4545 288.641 22.3104C289.119 22.2022 289.566 22.3549 289.9 22.7408C290.077 22.9454 290.234 23.2316 290.351 23.5994H290.352ZM289.345 29.361C290.504 26.0991 290.324 23.8263 289.606 22.9973C289.363 22.7185 289.068 22.6157 288.728 22.692C288.214 22.8075 287.878 23.0705 287.699 23.4955C287.375 24.2684 287.587 25.5808 288.314 27.2928C288.683 28.1631 289.102 28.9338 289.346 29.361H289.345Z" fill="#09AEB4"/>
<path d="M294.509 30.7773C294.973 32.2392 294.513 34.7145 293.105 35.9485L292.895 36.1319L292.793 35.8732C292.789 35.8626 292.36 34.7665 292.06 33.5219C291.646 31.8099 291.664 30.6374 292.114 30.0395C292.375 29.6929 292.766 29.5413 293.278 29.589C293.841 29.6409 294.275 30.0575 294.504 30.7625C294.507 30.7678 294.508 30.7731 294.51 30.7784L294.509 30.7773ZM293.054 35.4545C294.154 34.2926 294.538 32.1629 294.135 30.8961C294.134 30.8908 294.132 30.8865 294.131 30.8823C294.006 30.4964 293.75 30.0257 293.242 29.978C292.869 29.943 292.603 30.0406 292.427 30.2738C291.717 31.2173 292.561 34.1092 293.054 35.4534V35.4545Z" fill="#09AEB4"/>
<path d="M297.542 35.4619C297.559 35.5159 297.572 35.5732 297.582 35.6336C297.794 36.9598 297.368 38.2892 296.351 39.4775C295.592 40.3659 294.781 40.8578 294.746 40.879L294.531 41.0083L294.458 40.7687C294.427 40.668 293.713 38.287 294.276 36.734C294.715 35.5212 295.936 34.7633 296.755 34.8407C297.147 34.8778 297.426 35.1014 297.541 35.4619H297.542ZM294.763 40.3966C295.464 39.8973 297.588 38.163 297.195 35.6951C297.149 35.4089 296.994 35.2562 296.719 35.2297C296.058 35.1672 295.008 35.8679 294.645 36.8665C294.229 38.0156 294.599 39.7468 294.764 40.3966H294.763Z" fill="#09AEB4"/>
<path d="M275.687 61.3716C273.938 60.0529 272.432 63.1833 273.539 66.7972C273.539 66.7972 278.27 63.3212 275.687 61.3716Z" fill="#09AEB4"/>
<path d="M270.863 54.5054C268.434 54.1365 268.218 57.3115 269.891 61.5773C272.239 61.0621 273.352 54.8839 270.863 54.5054Z" fill="#09AEB4"/>
<path d="M267.082 49.277C265.936 49.1286 264.863 50.4029 264.878 52.5909C264.89 54.3602 266.845 56.8662 266.845 56.8662C266.845 56.8662 268.305 55.6864 268.387 52.9725C268.438 51.2764 267.85 49.3767 267.082 49.277Z" fill="#09AEB4"/>
<path d="M265.261 45.4077C264.415 44.4324 262.995 45.6006 262.863 46.8219C262.781 47.5904 263.406 49.4583 263.367 49.7551C263.367 49.7551 266.977 47.3858 265.261 45.4077Z" fill="#09AEB4"/>
<path d="M260.029 40.2832C259.161 39.6185 256.791 40.015 257.935 42.9928C258.74 45.0897 261.522 47.1197 261.585 47.1929C261.648 47.265 263.063 42.6048 260.03 40.2842L260.029 40.2832Z" fill="#09AEB4"/>
<path d="M257.268 50.5608C259.591 52.3555 261.685 52.2792 261.685 52.2792C261.685 52.2792 260.164 48.0441 257.83 47.4049C255.496 46.7657 254.947 48.7671 257.269 50.5619L257.268 50.5608Z" fill="#09AEB4"/>
<path d="M257.578 54.8669C256.472 56.0065 258.448 58.2687 263.337 59.1847C263.337 59.1847 259.923 52.4467 257.578 54.8669Z" fill="#09AEB4"/>
<path d="M261.334 62.4063C260.583 63.9403 264.149 65.9788 266.51 65.2389C266.51 65.2389 262.524 59.9734 261.334 62.4063Z" fill="#09AEB4"/>
<path d="M264.145 68.8591C263.176 68.0333 264.947 66.6583 266.588 66.9901C268.13 67.3018 269.764 69.14 269.764 69.14C269.764 69.14 266.486 70.8542 264.145 68.8591Z" fill="#09AEB4"/>
<path d="M270.913 68.3386C271.775 69.3308 272.696 70.3231 273.675 71.3121C278.875 76.5692 283.958 79.972 284.009 80.006L284.222 79.6869C284.171 79.653 279.116 76.2681 273.944 71.0376C270.909 67.9686 268.429 64.8753 266.572 61.8423C264.256 58.061 262.909 54.3644 262.567 50.8576C262.52 50.3742 262.442 49.9078 262.336 49.47L261.772 47.1462L261.398 47.2363L261.962 49.5601C262.064 49.9799 262.138 50.4283 262.184 50.8937C262.532 54.4609 263.898 58.2126 266.245 62.0448C267.518 64.1236 269.082 66.2311 270.913 68.3375V68.3386Z" fill="#09AEB4"/>
<path d="M269.549 69.2937L272.182 69.5609L273.776 66.8311L273.445 66.6371L271.975 69.1549L269.588 68.9121L269.549 69.2937Z" fill="#09AEB4"/>
<path d="M266.116 65.3767L269.484 66.3615L270.173 61.2699L269.794 61.2179L269.163 65.8686L266.224 65.0088L266.116 65.3767Z" fill="#09AEB4"/>
<path d="M263.224 59.3055L265.847 61.0472L267.088 56.7295L266.719 56.6235L265.622 60.4377L263.436 58.9864L263.224 59.3055Z" fill="#09AEB4"/>
<path d="M261.283 52.24L262.926 53.1771L262.826 52.7488C262.822 52.7361 262.533 51.3983 263.543 49.8007L263.219 49.5961C262.449 50.8142 262.374 51.8838 262.404 52.4382L261.474 51.9082L261.284 52.2411L261.283 52.24Z" fill="#09AEB4"/>
<path d="M273.355 66.8534C272.536 64.1798 273.113 61.836 274.143 61.114C274.652 60.7578 275.24 60.795 275.802 61.219C276.368 61.6462 276.655 62.1784 276.65 62.7996C276.638 64.7364 273.774 66.8619 273.652 66.952L273.435 67.1121L273.356 66.8534H273.355ZM275.571 61.5254C275.142 61.201 274.736 61.1692 274.364 61.4289C273.498 62.0353 273.002 64.1088 273.644 66.4718C274.309 65.9375 276.257 64.2509 276.267 62.7964C276.269 62.4328 276.149 62.1127 275.903 61.8296C275.811 61.7236 275.701 61.6218 275.572 61.5254H275.571Z" fill="#09AEB4"/>
<path d="M269.713 61.6473C268.485 58.5179 268.276 55.9927 269.154 54.8945C269.546 54.4026 270.147 54.2033 270.892 54.3167C271.842 54.4609 272.415 55.3662 272.462 56.8005C272.529 58.8677 271.462 61.4299 269.932 61.766L269.772 61.801L269.713 61.6483V61.6473ZM270.834 54.6952C270.225 54.6029 269.76 54.7503 269.454 55.134C268.689 56.0924 268.902 58.4627 270.007 61.3451C271.254 60.9073 272.137 58.6143 272.079 56.8122C272.065 56.3987 271.981 55.5867 271.552 55.0927C271.377 54.8913 271.144 54.7418 270.835 54.6952H270.834Z" fill="#09AEB4"/>
<path d="M266.693 56.9839C266.611 56.879 264.698 54.4047 264.686 52.5919C264.677 51.2583 265.068 50.1442 265.757 49.5346C266.158 49.1795 266.625 49.0247 267.106 49.0873C267.544 49.1445 267.941 49.6332 268.223 50.4643C268.474 51.2085 268.604 52.1244 268.579 52.9778C268.496 55.7478 267.028 56.9638 266.965 57.0147L266.814 57.1376L266.694 56.9839H266.693ZM267.058 49.4678C266.689 49.4201 266.327 49.542 266.011 49.8219C265.405 50.3583 265.061 51.3675 265.07 52.5898C265.08 54.0146 266.44 55.9906 266.869 56.5779C267.227 56.2005 268.134 55.0461 268.196 52.9672C268.24 51.5297 267.843 50.2014 267.397 49.6883C267.284 49.5601 267.17 49.4827 267.058 49.4678Z" fill="#09AEB4"/>
<path d="M263.178 49.7308C263.186 49.6406 263.085 49.2261 263.005 48.8933C262.833 48.1851 262.619 47.3031 262.673 46.8007C262.763 45.9706 263.403 45.1416 264.131 44.9137C264.615 44.7621 265.068 44.8925 265.405 45.2805C265.405 45.2805 265.405 45.2805 265.405 45.2815C265.809 45.748 265.974 46.2738 265.895 46.8431C265.671 48.4533 263.56 49.8558 263.471 49.9152L263.138 50.1272L263.176 49.7297L263.178 49.7308ZM265.117 45.5338C264.879 45.2603 264.587 45.1755 264.246 45.2815C263.663 45.4639 263.128 46.1646 263.055 46.8431C263.008 47.2788 263.221 48.1597 263.378 48.8032C263.441 49.0618 263.488 49.2601 263.519 49.4117C264.077 48.994 265.361 47.918 265.517 46.7911C265.581 46.3289 265.451 45.9187 265.118 45.5338H265.117Z" fill="#09AEB4"/>
<path d="M257.756 43.0606C257.062 41.2511 257.658 40.457 258.076 40.1443C258.728 39.6567 259.659 39.7574 260.145 40.1305C262.648 42.0461 262.188 45.4745 261.988 46.4794C261.818 47.3296 261.721 47.3551 261.636 47.3784C261.568 47.3964 261.497 47.3773 261.448 47.3275C261.433 47.3148 261.401 47.2883 261.351 47.2491C260.357 46.4593 259.624 45.749 259.082 45.1246C258.334 44.2628 257.95 43.5674 257.756 43.0606ZM259.912 40.4348C259.534 40.1454 258.798 40.0828 258.305 40.4517C257.734 40.879 257.666 41.7567 258.113 42.9228C258.427 43.7412 259.271 45.0886 261.503 46.8802C261.786 45.9303 262.386 42.3292 259.911 40.4348H259.912Z" fill="#09AEB4"/>
<path d="M255.709 47.759C256.021 47.1346 256.833 46.9321 257.88 47.2194C258.899 47.4982 259.881 48.429 260.798 49.9841C261.471 51.1258 261.849 52.17 261.865 52.2145L261.954 52.4616L261.692 52.4711C261.604 52.4743 259.502 52.5294 257.152 50.7135C256.831 50.4654 256.555 50.2067 256.328 49.9459C255.651 49.1668 255.409 48.3643 255.71 47.76L255.709 47.759ZM261.4 52.0757C261.023 51.1481 259.659 48.1046 257.779 47.5894C256.922 47.354 256.276 47.4823 256.053 47.9296C255.694 48.6484 256.493 49.718 257.386 50.4092C259.136 51.7619 260.767 52.0259 261.4 52.0757Z" fill="#09AEB4"/>
<path d="M257.157 56.0054C257.006 55.5295 257.106 55.0768 257.44 54.7333C257.886 54.2733 258.401 54.0846 258.97 54.1704C261.157 54.5022 263.414 58.9101 263.509 59.0977L263.685 59.4444L263.303 59.3723C260.245 58.7998 258.465 57.762 257.646 56.8196C257.398 56.5344 257.238 56.2567 257.157 56.0044V56.0054ZM261.773 56.9998C260.713 55.5199 259.723 54.6718 258.912 54.5489C258.466 54.481 258.074 54.6284 257.716 54.9994C257.478 55.2443 257.414 55.5432 257.523 55.8888C257.848 56.9129 259.658 58.2232 262.977 58.9165C262.744 58.4945 262.312 57.7514 261.774 56.9988L261.773 56.9998Z" fill="#09AEB4"/>
<path d="M261.518 63.9455C261.045 63.3954 260.919 62.8187 261.162 62.3215C261.384 61.8688 261.71 61.6186 262.133 61.5784C262.863 61.5073 263.852 62.0904 265.073 63.3095C265.96 64.1957 266.658 65.1138 266.664 65.1223L266.829 65.3396L266.569 65.4212C264.819 65.9703 262.514 65.0915 261.529 63.9572C261.526 63.953 261.522 63.9487 261.519 63.9445L261.518 63.9455ZM262.169 61.96C261.884 61.9876 261.667 62.1614 261.506 62.49C261.286 62.9395 261.548 63.3932 261.808 63.6954C261.811 63.6985 261.814 63.7028 261.818 63.706C262.672 64.6887 264.648 65.453 266.181 65.1265C265.308 64.0293 263.32 61.8487 262.169 61.96Z" fill="#09AEB4"/>
<path d="M263.779 67.9092C264.132 67.1841 265.388 66.5513 266.626 66.8014C268.213 67.1227 269.839 68.9344 269.907 69.0117L270.07 69.1951L269.853 69.3086C269.818 69.3266 268.993 69.7538 267.863 69.9361C266.35 70.18 265.022 69.8577 264.021 69.0043C263.976 68.9651 263.934 68.9248 263.898 68.8824C263.656 68.6025 263.611 68.2559 263.78 67.9082L263.779 67.9092ZM266.55 67.1778C265.53 66.9711 264.408 67.4916 264.123 68.0767C264.004 68.3195 264.053 68.5273 264.269 68.7117C266.132 70.2998 268.667 69.4082 269.441 69.0764C268.983 68.6068 267.723 67.4142 266.55 67.1767V67.1778Z" fill="#09AEB4"/>
<path d="M320.356 46.7392C320.188 45.2147 317.868 45.9505 316.558 48.2519C316.558 48.2519 320.604 48.9929 320.356 46.7392Z" fill="#09AEB4"/>
<path d="M321.539 40.9807C320.559 39.5655 318.836 40.9807 317.467 43.8843C318.858 44.8331 322.543 42.432 321.539 40.9807Z" fill="#09AEB4"/>
<path d="M322.387 36.54C321.912 35.8849 320.747 35.9495 319.638 37.0086C318.742 37.8651 318.404 40.0659 318.404 40.0659C318.404 40.0659 319.708 40.244 321.13 38.9814C322.019 38.1916 322.704 36.9789 322.386 36.54H322.387Z" fill="#09AEB4"/>
<path d="M317.015 32.1544C317.217 34.2004 318.262 35.2318 318.262 35.2318C318.262 35.2318 319.69 32.4215 318.894 30.9236C318.098 29.4257 316.814 30.1084 317.015 32.1544Z" fill="#09AEB4"/>
<path d="M314.97 34.3817C313.858 34.3657 313.654 36.4605 315.537 39.3927C315.537 39.3927 317.33 34.4145 314.97 34.3817Z" fill="#09AEB4"/>
<path d="M312.932 39.9196C311.789 40.2737 312.464 43.0723 313.976 43.9193C313.976 43.9193 314.745 39.3567 312.932 39.9196Z" fill="#09AEB4"/>
<path d="M310.993 44.4547C310.949 43.5642 312.5 43.8048 313.12 44.8024C313.702 45.7384 313.55 47.4547 313.55 47.4547C313.55 47.4547 311.101 46.6077 310.993 44.4557V44.4547Z" fill="#09AEB4"/>
<path d="M314.511 47.654C314.419 48.5699 314.356 49.5166 314.322 50.4908C314.142 55.6683 314.85 59.8949 314.856 59.9373L315.121 59.8918C315.114 59.8504 314.41 55.6461 314.59 50.4951C314.696 47.4738 315.081 44.7229 315.734 42.3175C316.549 39.3196 317.785 36.857 319.409 34.9965C319.633 34.74 319.833 34.476 320.005 34.212L320.919 32.8074L320.693 32.6611L319.779 34.0657C319.614 34.3191 319.421 34.5735 319.206 34.8195C317.554 36.7107 316.299 39.2104 315.473 42.2497C315.026 43.8981 314.702 45.7077 314.508 47.653L314.511 47.654Z" fill="#09AEB4"/>
<path d="M313.369 47.4176L314.498 48.889L316.655 48.3887L316.595 48.1268L314.606 48.588L313.582 47.2544L313.369 47.4176Z" fill="#09AEB4"/>
<path d="M313.715 43.7858L314.832 45.9759L317.759 43.8801L317.603 43.6607L314.929 45.5752L313.955 43.6638L313.715 43.7858Z" fill="#09AEB4"/>
<path d="M315.42 39.3938L315.793 41.567L318.591 40.1242L318.468 39.8857L315.996 41.1599L315.685 39.3482L315.42 39.3938Z" fill="#09AEB4"/>
<path d="M318.089 35.0082L318.401 36.2962L318.572 36.0386C318.577 36.0312 319.12 35.2403 320.419 34.987L320.369 34.723C319.377 34.9159 318.796 35.3919 318.528 35.6729L318.352 34.9435L318.091 35.0071L318.089 35.0082Z" fill="#09AEB4"/>
<path d="M316.441 48.1851C317.41 46.4826 318.882 45.6504 319.745 45.8285C320.171 45.9165 320.435 46.2346 320.49 46.7243C320.544 47.2183 320.41 47.6201 320.091 47.9159C319.098 48.8403 316.638 48.4025 316.533 48.3834L316.347 48.3494L316.44 48.1851H316.441ZM320.222 46.754C320.181 46.3787 320.003 46.1561 319.691 46.0925C318.966 45.942 317.671 46.6862 316.775 48.1491C317.366 48.2318 319.163 48.4141 319.909 47.7198C320.095 47.5459 320.2 47.3318 320.227 47.0689C320.236 46.9703 320.235 46.8653 320.222 46.754Z" fill="#09AEB4"/>
<path d="M317.345 43.8271C318.35 41.6974 319.537 40.3775 320.519 40.297C320.958 40.2609 321.349 40.4708 321.649 40.9044C322.032 41.4588 321.846 42.185 321.137 42.8984C320.116 43.9267 318.296 44.6137 317.391 43.9956L317.296 43.931L317.345 43.8271ZM321.428 41.0571C321.182 40.7019 320.884 40.5366 320.541 40.5641C319.685 40.6341 318.579 41.8829 317.641 43.8313C318.464 44.2564 320.057 43.6045 320.947 42.7087C321.152 42.503 321.525 42.0705 321.571 41.6136C321.59 41.427 321.554 41.2373 321.429 41.0571H321.428Z" fill="#09AEB4"/>
<path d="M318.272 40.0457C318.285 39.9535 318.628 37.7899 319.546 36.9121C320.221 36.2665 320.977 35.9304 321.619 35.9888C321.994 36.0227 322.297 36.1859 322.496 36.4616C322.677 36.7117 322.619 37.1496 322.331 37.6923C322.072 38.1778 321.668 38.6846 321.22 39.0821C319.767 40.3712 318.442 40.2069 318.386 40.1994L318.25 40.1814L318.272 40.0468V40.0457ZM322.279 36.6195C322.126 36.4086 321.89 36.2824 321.595 36.2559C321.03 36.205 320.351 36.5146 319.731 37.1061C319.01 37.7962 318.657 39.4394 318.563 39.9397C318.928 39.9408 319.952 39.8486 321.042 38.8807C321.795 38.2118 322.282 37.3711 322.329 36.8973C322.34 36.7785 322.324 36.6821 322.278 36.6185L322.279 36.6195Z" fill="#09AEB4"/>
<path d="M317.695 30.013C318.164 29.872 318.657 30.1879 319.014 30.8611C319.361 31.5141 319.358 32.4618 319.006 33.6767C318.749 34.5682 318.397 35.2636 318.382 35.2923L318.298 35.4566L318.168 35.3273C318.123 35.2838 317.086 34.2385 316.882 32.1682C316.854 31.8851 316.853 31.6201 316.878 31.3795C316.95 30.6597 317.242 30.1508 317.695 30.0141V30.013ZM318.229 34.9891C318.521 34.3509 319.417 32.1926 318.776 30.9872C318.484 30.437 318.109 30.1699 317.774 30.2706C317.235 30.4328 317.073 31.3551 317.15 32.1417C317.302 33.6841 317.951 34.6414 318.229 34.9891Z" fill="#09AEB4"/>
<path d="M314.187 34.7145C314.357 34.4082 314.636 34.2428 314.972 34.247C315.42 34.2534 315.764 34.4251 315.994 34.7559C316.876 36.0301 315.714 39.2994 315.663 39.4383L315.571 39.6949L315.423 39.4659C314.247 37.6319 313.919 36.2262 314.006 35.3559C314.032 35.0919 314.097 34.8778 314.187 34.7156V34.7145ZM315.898 37.546C316.143 36.2941 316.1 35.3824 315.772 34.9096C315.592 34.6499 315.329 34.5216 314.967 34.5163C314.728 34.5131 314.544 34.6234 314.421 34.8449C314.056 35.5032 314.257 37.0552 315.498 39.08C315.601 38.7588 315.773 38.1821 315.897 37.545L315.898 37.546Z" fill="#09AEB4"/>
<path d="M312.235 40.7528C312.288 40.2471 312.521 39.9058 312.892 39.7913C313.229 39.6864 313.513 39.733 313.738 39.9291C314.125 40.2673 314.303 41.0507 314.268 42.2592C314.242 43.137 314.11 43.9342 314.109 43.9416L314.077 44.1303L313.911 44.037C312.79 43.4083 312.13 41.8118 312.235 40.7645C312.235 40.7602 312.235 40.7571 312.236 40.7528H312.235ZM313.56 40.1316C313.408 39.9991 313.216 39.9726 312.97 40.0478C312.635 40.1517 312.53 40.5037 312.501 40.7814C312.501 40.7846 312.501 40.7878 312.501 40.792C312.411 41.6995 312.97 43.0744 313.873 43.6988C314.013 42.7267 314.169 40.6648 313.56 40.1316Z" fill="#09AEB4"/>
<path d="M311.302 43.8112C311.841 43.6426 312.767 43.9787 313.234 44.7303C313.833 45.6939 313.691 47.3932 313.685 47.4653L313.67 47.6371L313.508 47.5809C313.482 47.5724 312.867 47.3561 312.231 46.8674C311.38 46.2134 310.906 45.3812 310.859 44.461C310.857 44.4186 310.858 44.3783 310.863 44.3402C310.888 44.0815 311.044 43.8928 311.302 43.8112ZM313.006 44.8723C312.621 44.2532 311.817 43.932 311.382 44.0677C311.201 44.1239 311.118 44.249 311.129 44.4472C311.215 46.1593 312.886 47.0233 313.428 47.2586C313.447 46.7996 313.449 45.5847 313.007 44.8723H313.006Z" fill="#09AEB4"/>
<path d="M302.035 87.2072C302.035 87.2072 302.134 87.1616 302.319 87.0715C304.326 86.0888 316.508 79.7664 323.724 67.6421C330.939 55.5199 330.69 41.8002 330.595 39.5645C330.588 39.3673 330.58 39.2602 330.58 39.2496C330.572 39.2538 330.473 39.2984 330.297 39.3853C328.869 40.0839 322.308 43.4783 316.041 49.7308C313.487 52.2792 310.982 55.3037 308.893 58.8136C306.725 62.4561 305.231 66.2438 304.204 69.8195C301.814 78.1423 301.955 85.3234 302.021 86.8902C302.029 87.098 302.036 87.2072 302.036 87.2072H302.035Z" fill="#09AEB4"/>
<path d="M330.579 39.2507C330.579 39.2602 330.587 39.3683 330.594 39.5655L302.318 87.0726C302.133 87.1637 302.034 87.2083 302.034 87.2083C302.034 87.2083 302.027 87.0991 302.018 86.8913L330.295 39.3864C330.472 39.2994 330.57 39.2549 330.579 39.2507Z" fill="white"/>
<g style="mix-blend-mode:multiply">
<path d="M304.202 69.8206C305.219 72.0001 306.077 73.4864 306.426 74.0652C306.533 74.2433 306.592 74.3355 306.592 74.3355C306.592 74.3355 306.656 74.2497 306.776 74.0811C307.975 72.3871 314.673 62.4402 316.039 49.7318C313.485 52.2803 310.98 55.3047 308.891 58.8147C306.723 62.4572 305.229 66.2449 304.202 69.8206Z" fill="#ABAAAA"/>
</g>
<path d="M296.372 44.0137C296.168 45.4543 296.029 46.9353 295.973 48.447C295.448 62.5409 302.238 74.4617 303.395 76.3826C303.502 76.5607 303.56 76.6529 303.56 76.6529C303.56 76.6529 303.625 76.566 303.745 76.3974C304.07 75.9373 304.801 74.8698 305.72 73.3041C308.445 68.6598 312.83 59.632 313.222 49.0883C313.747 34.9912 306.953 23.0673 305.799 21.1517C305.699 20.9821 305.64 20.8909 305.635 20.8824H305.634C305.629 20.8909 305.564 20.9768 305.449 21.1379C304.296 22.7683 298.066 32.0176 296.371 44.0137H296.372Z" fill="#17DEC9"/>
<path d="M305.451 21.1379L304.019 59.6076L303.395 76.3836C303.502 76.5617 303.56 76.6539 303.56 76.6539C303.56 76.6539 303.625 76.567 303.745 76.3985L304.325 60.8278L305.8 21.1527C305.7 20.9831 305.641 20.8919 305.636 20.8835H305.635C305.63 20.8919 305.565 20.9778 305.451 21.139V21.1379Z" fill="white"/>
<g style="mix-blend-mode:multiply">
<path d="M296.372 44.0137C296.168 45.4543 296.029 46.9353 295.973 48.447C295.448 62.5409 302.238 74.4617 303.395 76.3826C303.502 76.5607 303.56 76.6529 303.56 76.6529C303.56 76.6529 303.625 76.566 303.745 76.3974C304.07 75.9373 304.801 74.8698 305.72 73.3041C305.721 69.687 305.393 65.3544 304.325 60.8268C304.229 60.4218 304.127 60.0158 304.019 59.6077C303.525 57.7366 302.899 55.8401 302.114 53.9563C300.556 50.2131 298.522 46.8855 296.372 44.0147V44.0137Z" fill="#D5D6D6"/>
</g>
<path d="M251 69.9022C251.005 69.9118 251.065 70.0008 251.18 70.1619C252.472 71.9874 260.667 82.9944 273.791 88.1708C277.541 89.6497 281.32 90.5062 284.857 90.9642C286.269 91.1476 287.642 91.2674 288.959 91.3373C289.439 91.3628 289.912 91.3829 290.377 91.3956C290.886 91.4105 291.385 91.4179 291.873 91.42C293.093 91.4232 294.245 91.3893 295.311 91.331C299.053 91.1274 301.733 90.6281 302.608 90.449C302.81 90.4076 302.915 90.3832 302.915 90.3832C302.915 90.3832 302.855 90.2921 302.734 90.1225C302.081 89.1981 299.669 85.9372 295.752 82.2682C293.839 80.4756 291.568 78.5855 288.965 76.8236C286.344 75.0469 283.386 73.4005 280.125 72.1146C278.763 71.5772 277.396 71.1213 276.039 70.7376C276.034 70.7365 276.029 70.7355 276.025 70.7333C273.666 70.0665 271.334 69.616 269.098 69.3245C260.231 68.169 252.875 69.5132 251.308 69.8365C251.114 69.8757 251.011 69.9012 251.001 69.9022H251Z" fill="#17DEC9"/>
<path d="M251 69.9022C251.005 69.9118 251.066 70.0008 251.18 70.1619L283.819 83.0368L302.608 90.449C302.81 90.4076 302.915 90.3832 302.915 90.3832C302.915 90.3832 302.855 90.2931 302.734 90.1225L283.453 82.5173L251.307 69.8365C251.114 69.8757 251.01 69.9012 251 69.9022Z" fill="white"/>
<g style="mix-blend-mode:multiply">
<path d="M269.098 69.3234C269.338 69.9923 269.596 70.6623 269.874 71.3312C270.99 74.0111 272.349 76.478 273.821 78.7158C273.933 78.8865 274.047 79.0572 274.16 79.2257C277.747 84.54 281.926 88.5217 284.858 90.9631C286.27 91.1465 287.642 91.2663 288.959 91.3363C289.151 89.8479 289.351 87.7478 289.402 85.2375C289.405 85.1146 289.406 84.9895 289.408 84.8633C289.442 82.4792 289.339 79.7431 288.965 76.8215C286.344 75.0447 283.386 73.3984 280.125 72.1125C278.763 71.5751 277.397 71.1192 276.04 70.7355C276.034 70.7344 276.029 70.7333 276.025 70.7312C273.666 70.0644 271.334 69.6139 269.098 69.3223V69.3234Z" fill="#ABAAAA"/>
</g>
<path d="M285.612 52.4466C284.703 57.1386 284.226 62.7507 285.068 68.6088C285.955 74.769 288.166 80.2571 290.489 84.612C290.728 85.0614 290.969 85.4982 291.209 85.9233C291.811 86.9855 292.413 87.9682 292.992 88.865C293.977 90.3926 294.9 91.6679 295.656 92.6538C296.458 93.7001 297.073 94.4199 297.376 94.7645C297.512 94.9203 297.586 94.9998 297.586 94.9998C297.586 94.9998 297.635 94.9023 297.723 94.7136C298.202 93.6885 299.839 89.976 301.082 84.7561C302.304 79.6359 303.149 73.0644 302.154 66.1504C301.945 64.7002 301.664 63.2882 301.324 61.9196C301.324 61.9143 301.321 61.909 301.321 61.9037C298.387 50.09 291.172 41.4969 289.848 39.9926C289.718 39.8442 289.645 39.7657 289.637 39.7583C289.632 39.7679 289.584 39.8643 289.502 40.0435C288.953 41.2202 286.871 45.9514 285.613 52.4455L285.612 52.4466Z" fill="#09AEB4"/>
<path d="M289.637 39.7584C289.633 39.768 289.585 39.8645 289.501 40.0436L294.499 74.7723L297.375 94.7635C297.512 94.9183 297.585 94.9978 297.585 94.9978C297.585 94.9978 297.633 94.9003 297.721 94.7105L294.769 74.1956L289.847 39.9917C289.717 39.8433 289.644 39.7648 289.637 39.7574V39.7584Z" fill="white"/>
<g style="mix-blend-mode:multiply">
<path d="M285.612 52.4467C284.703 57.1387 284.226 62.7508 285.068 68.6089C285.955 74.7691 288.166 80.2572 290.489 84.6121C290.728 85.0616 290.969 85.4983 291.209 85.9234C291.811 86.9856 292.413 87.9683 292.992 88.8652C293.977 90.3928 294.9 91.6681 295.656 92.654C295.82 91.7105 296.116 89.7482 296.275 87.1097C296.31 86.516 296.339 85.8884 296.357 85.2291C296.501 80.1989 296.059 73.3942 293.668 66.5375C293.488 66.018 293.295 65.4986 293.09 64.9791C292.988 64.7194 292.884 64.4608 292.776 64.2021C290.878 59.6416 288.274 55.698 285.613 52.4456L285.612 52.4467Z" fill="#ABAAAA"/>
</g>
<path d="M269.695 39.6259C269.692 39.6365 269.67 39.7415 269.635 39.9355C269.225 42.1352 267.033 55.6811 272.457 68.7033C277.882 81.7276 289.044 89.7133 290.892 90.9695C291.063 91.0861 291.154 91.1444 291.154 91.1444C291.154 91.1444 291.176 91.0373 291.214 90.8327C291.626 88.6288 293.815 75.085 288.391 62.066C282.968 49.0428 271.807 41.0581 269.957 39.7998C269.794 39.6885 269.704 39.6302 269.696 39.6249L269.695 39.6259Z" fill="#09AEB4"/>
<path d="M269.695 39.627C269.693 39.6365 269.67 39.7425 269.635 39.9365L290.892 90.9716C291.063 91.0882 291.154 91.1465 291.154 91.1465C291.154 91.1465 291.176 91.0394 291.215 90.8348L269.956 39.8008C269.793 39.6895 269.703 39.6312 269.695 39.6259V39.627Z" fill="white"/>
<path fill-rule="evenodd" clip-rule="evenodd" d="M240.278 51.9024C236.069 61.1504 234.54 69.9984 222.495 71.7955C213.973 72.0323 201.815 67.3857 202.968 64.4439C204.221 61.2447 199.94 59.1557 204.838 59.2481C211.345 59.2285 221.036 60.0568 222.504 59.9536C223.894 59.8553 229.235 38.345 239.276 34.6771C240.29 34.0237 243.243 47.4337 240.279 51.9015" fill="white"/>
<path fill-rule="evenodd" clip-rule="evenodd" d="M205.655 67.7286C202.985 66.1988 202.589 65.4107 202.967 64.4439C204.22 61.2456 199.939 59.1567 204.835 59.2481C205.848 59.2451 207.091 59.2825 208.471 59.3483C211.822 64.0892 209.174 67.4564 205.654 67.7286" fill="#2299F4"/>
<path fill-rule="evenodd" clip-rule="evenodd" d="M235.834 62.4405C233.299 67.6825 231.687 70.9554 222.495 72.2062C215.304 72.9264 212.262 71.0261 207.77 68.7711C213.735 70.7196 218.662 71.0507 224.034 67.9939C228.491 65.4579 230.181 57.3783 230.181 57.3783C230.181 57.3783 234.238 60.9136 235.835 62.4405" fill="#C0D6F6"/>
<path fill-rule="evenodd" clip-rule="evenodd" d="M197.569 56.7887C196.985 55.873 194.623 52.2719 193.674 51.8759C193.189 51.6725 193.163 51.8592 193.087 52.1314C193.02 52.3711 193.098 52.9243 193.269 53.2574C193.63 53.954 193.617 55.3787 193.872 55.7315C189.714 57.393 184.289 54.5298 183.889 56.8624C184.086 57.2957 186.057 59.2579 186.431 59.8966C187.62 61.9285 188.425 62.802 197.321 63.2235C198.158 63.2628 203.601 65.398 204.802 65.2191C207.415 64.8291 206.672 60.7642 205.718 59.8966C205.524 59.7207 199.769 58.5652 199.702 58.3274L197.569 56.7897V56.7887Z" fill="#F4B1B1"/>
<path fill-rule="evenodd" clip-rule="evenodd" d="M259.47 34.6997C253.048 49.9255 253.217 98.7846 252.952 98.764C248.853 99.8075 236.599 99.3358 235.177 98.2668C234.358 88.0579 235.634 51.7708 240.352 36.7267C241.092 34.3666 241.684 34.3892 242.638 33.6169C247.716 32.71 251.93 32.1656 259.072 33.607L259.47 34.6997Z" fill="#2299F4"/>
<path d="M241.684 64.5343L243.353 80.613L249.428 66.4365L248.752 42.4973L250.572 40.1617L247.811 38.4019L245.668 39.7677L246.975 42.4196C244.672 48.5656 243.217 59.7452 241.684 64.5343Z" fill="#0F4884"/>
<path fill-rule="evenodd" clip-rule="evenodd" d="M239.952 115.187C235.28 115.552 227.472 113.674 224.427 112.077C227.05 94.9615 225.987 37.5953 240.964 34.0433C241.534 33.8832 242.091 33.7417 242.638 33.6169C239.097 41.4175 246.332 69.455 245.867 91.0351C245.622 102.43 242.666 110.464 239.952 115.187Z" fill="white"/>
<path fill-rule="evenodd" clip-rule="evenodd" d="M268.628 113.834C262.415 114.903 253.086 116.432 247.314 115.825C246.364 111.388 241.362 103.483 242.339 89.3775C243.738 69.1877 255.523 41.2543 258.767 33.5638C270.764 35.2027 275.532 44.5921 279.861 55.0004L270.793 55.8739C267.626 70.7087 267.527 93.7941 268.629 113.834" fill="white"/>
<path d="M257.816 43.643C257.855 43.2431 257.982 41.0903 257.642 38.6879C257.415 37.0725 256.978 35.353 256.164 34.005C255.383 32.7109 254.246 31.7588 252.591 31.5937C252.148 31.5495 251.668 31.5603 251.147 31.634C240.682 33.1138 239.126 42.8255 238.029 51.7393L237.935 52.5028L237.063 52.3957L237.157 51.6322C238.291 42.4315 239.893 32.3356 251.024 30.7615C251.616 30.677 252.167 30.6652 252.675 30.7163C254.652 30.9128 256.001 32.032 256.918 33.551C257.802 35.017 258.272 36.8515 258.514 38.5631C258.866 41.0578 258.734 43.3079 258.691 43.7275L257.815 43.643H257.816Z" fill="#005B94"/>
<path d="M253.869 59.3984C256.718 59.9546 258.73 59.7227 260.149 58.5299C261.554 57.3498 262.333 55.2501 262.73 52.0587L262.076 51.9781C261.7 54.9975 260.989 56.9617 259.724 58.0238C258.474 59.0732 256.637 59.2638 253.993 58.748L253.869 59.3984Z" fill="#B4B5B5"/>
<path d="M259.474 60.0891C256.576 59.9368 254.68 59.2235 253.593 57.7202C252.516 56.2345 252.27 54.008 252.658 50.8157L253.312 50.8962C252.945 53.9166 253.158 55.9948 254.128 57.333C255.086 58.6546 256.823 59.2864 259.512 59.4288L259.474 60.0891Z" fill="#DBDCDC"/>
<path d="M258.153 43.2421C254.633 43.2332 253.018 46.8353 252.488 49.9255C252.401 50.4305 252.339 50.7361 252.424 50.9699C252.674 51.6656 253.546 51.3698 253.586 50.912C253.828 48.1519 255.304 43.9063 258.725 44.3563C258.744 44.3592 258.751 44.3602 258.768 44.3612C258.843 44.3691 259.732 44.4722 260.545 45.3497C261.372 46.2409 262.259 48.1087 261.787 51.9407C261.756 52.1942 261.932 52.431 262.195 52.5185L262.207 52.5224L262.221 52.5263L262.235 52.5303H262.236L262.249 52.5342H262.251H262.252C262.266 52.5371 262.281 52.5401 262.296 52.543H262.298L262.307 52.545C262.307 52.545 262.307 52.545 262.309 52.545C262.309 52.545 262.309 52.545 262.31 52.545H262.312H262.313C262.313 52.545 262.313 52.545 262.314 52.545H262.317H262.318H262.319C262.319 52.545 262.319 52.545 262.32 52.545H262.323C262.659 52.5863 262.96 52.3819 262.997 52.0871C263.417 48.6776 262.892 46.1711 261.436 44.6383C260.522 43.6754 259.414 43.2411 258.148 43.2381" fill="#005B94"/>
<path d="M260.829 59.8317C260.848 59.5409 260.629 59.2894 260.338 59.2707L259.349 59.2894C259.039 59.3454 259.037 59.5065 259.014 59.7099C259 59.931 258.989 60.0921 259.315 60.1904L260.268 60.3221C260.559 60.3417 260.81 60.1216 260.829 59.8308" fill="#005B94"/>
<path d="M252.618 58.8186C252.67 58.5317 252.944 58.3411 253.23 58.3932L254.186 58.6526C254.473 58.7823 254.436 58.9395 254.408 59.1419C254.369 59.3591 254.341 59.5182 254 59.5359L253.042 59.4318C252.756 59.3797 252.565 59.1056 252.617 58.8186" fill="#005B94"/>
<path d="M235.882 52.0655C235.797 53.2043 236.514 54.1868 237.483 54.2596C238.454 54.3323 239.31 53.4696 239.395 52.3308C239.48 51.193 238.764 50.2104 237.794 50.1377C236.825 50.064 235.969 50.9277 235.882 52.0665" fill="#005B94"/>
<path d="M235.952 52.0812C235.892 52.8771 236.394 53.5649 237.072 53.616C237.75 53.6671 238.349 53.0628 238.409 52.2669C238.469 51.4711 237.967 50.7842 237.289 50.7322C236.611 50.6811 236.012 51.2854 235.952 52.0812Z" fill="#B4B5B5"/>
<path d="M236.049 52.0645C236.009 52.6 236.346 53.0618 236.802 53.0962C237.258 53.1306 237.66 52.7248 237.7 52.1902C237.74 51.6547 237.403 51.1929 236.947 51.1595C236.491 51.1251 236.089 51.5309 236.049 52.0655" fill="white"/>
<path fill-rule="evenodd" clip-rule="evenodd" d="M239.2 26.0707C240.662 28.1979 242.127 29.6964 244.038 30.3075L244.54 33.8516C243.721 36.2481 244.078 38.3488 247.237 38.4609C255.76 37.7082 253.91 31.9533 253.797 31.688L252.297 26.8676C252.575 26.8125 254.763 25.2532 255.346 24.982C255.928 24.7098 256.66 23.4128 256.549 22.165C256.437 20.9171 254.58 21.5833 254.58 21.5833C256.46 18.0883 258.726 15.1318 254.929 12.7432C251.132 10.3555 243.086 9.76795 243.086 9.76795L238.156 8.78636C238.98 10.329 238.927 15.8608 238.186 19.4128C237.522 22.5993 237.237 23.2144 239.2 26.0707Z" fill="#F4B1B1"/>
<path fill-rule="evenodd" clip-rule="evenodd" d="M247.812 38.401C249.077 39.3835 250.996 40.7306 252.262 41.7132C254.263 38.9188 255.226 36.9065 255.908 33.6817C255.695 33.3211 255.463 32.9791 255.208 32.6657C254.786 32.144 254.303 31.6979 253.751 31.3697C252.973 33.6581 251.32 36.2462 247.812 38.401Z" fill="#5CBDFF"/>
<path fill-rule="evenodd" clip-rule="evenodd" d="M247.812 38.4019C246.871 39.6723 245.171 40.8583 244.23 42.1288C243.414 40.087 243.126 38.1847 243.232 35.6448C243.621 35.1633 244.115 34.5021 244.54 33.8516C245.116 35.5888 246.49 37.269 247.812 38.4009" fill="#5CBDFF"/>
<path fill-rule="evenodd" clip-rule="evenodd" d="M250.475 27.7136C249.297 30.5768 247.979 33.7868 244.54 33.8517L244.038 30.3076C245.577 30.3419 247.035 30.0187 250.475 27.7136Z" fill="#E98385"/>
<path fill-rule="evenodd" clip-rule="evenodd" d="M257.366 13.5577C257.802 10.8606 256.582 8.2548 253.758 6.61391C247.907 3.21423 243.687 6.12459 241.794 6.87626C240.485 7.39603 239.566 7.48643 238.273 7.94922C235.041 9.10668 235.714 16.079 238.427 18.0235C238.697 18.217 238.629 14.9903 238.924 15.1563C239.239 15.3646 239.581 15.5464 239.952 15.6977C244.139 17.1627 248.314 14.16 250.963 16.531C252.274 17.7051 252.425 19.6388 251.57 22.7742C251.318 23.6988 250.91 24.4102 252.288 23.5239C252.921 23.1171 253.973 22.5256 254.395 22.7801C255.335 23.347 255.106 24.8454 254.496 25.4016C254.223 25.6502 253.695 26.0373 253.695 26.0373C259.75 23.9975 259.999 15.0738 257.364 13.5567" fill="#0F4884"/>
<path d="M262.921 47.5035C263.19 41.7771 265.102 34.9757 270.129 38.8107C288.418 52.7631 286.618 95.7367 281.59 91.9842C279.293 90.2706 276.034 95.1943 275.715 90.3198C274.825 82.9083 273.262 72.0991 271.889 67.5606C269.215 58.7224 262.328 56.3102 262.922 47.5044" fill="white"/>
</g>
</svg>
