<svg width="14" height="16" viewBox="0 0 14 16" fill="none" xmlns="http://www.w3.org/2000/svg">
<path d="M7.91769 2.49466C7.44743 3.81167 5.76653 4.72854 4.71484 4.88612" stroke="#00C2C1" stroke-linecap="round" stroke-linejoin="round"/>
<path d="M8.51598 1.13038C3.70513 0.108404 2.57012 5.39969 4.24996 6.38078" stroke="#00C2C1" stroke-linecap="round" stroke-linejoin="round"/>
<path d="M9.36987 1.55518C11.3661 2.46926 10.7781 3.88915 10.0846 5.39859" stroke="#00C2C1" stroke-linecap="round" stroke-linejoin="round"/>
<path d="M9.57938 4.45911C11.0602 8.9893 4.50171 9.96642 4.50171 5.93673" stroke="#00C2C1" stroke-linecap="round" stroke-linejoin="round"/>
<path d="M7.78565 5.78295C7.80299 5.65616 7.7672 5.55892 7.74756 5.44131" stroke="#00C2C1" stroke-linecap="round" stroke-linejoin="round"/>
<path d="M6.59424 5.82562C6.59424 5.71168 6.59424 5.59791 6.59424 5.48398" stroke="#00C2C1" stroke-linecap="round" stroke-linejoin="round"/>
<path d="M1 14.0037C1 12.4672 1.99821 8.82887 5.42343 8.9964C6.37758 9.04308 6.60456 14.2741 7.23752 14.0037C8.3452 13.5303 7.9799 10.106 8.83933 8.82174C12.9581 8.60263 13 13.7932 13 14.5801" stroke="#00C2C1" stroke-linecap="round" stroke-linejoin="round"/>
<path d="M11.0784 10.822C10.7523 10.0818 9.84433 9.08862 8.98584 8.98575" stroke="#00C2C1" stroke-linecap="round" stroke-linejoin="round"/>
<path d="M5.39856 9.15662C4.38517 9.77139 3.94515 10.687 3.56226 11.7189" stroke="#00C2C1" stroke-linecap="round" stroke-linejoin="round"/>
<path d="M2.41013 14.1102C2.30037 13.3433 2.35301 12.3651 3.09564 11.9181C5.18364 10.6614 4.91669 14.7457 3.90971 14.0242" stroke="#00C2C1" stroke-linecap="round" stroke-linejoin="round"/>
<path d="M10.9531 10.8237C12.1839 10.7702 10.5564 12.0345 10.8607 10.9091" stroke="#00C2C1" stroke-linecap="round" stroke-linejoin="round"/>
<path d="M11.4198 13.0978C10.9013 13.0311 10.5006 13.2543 10.0105 13.299" stroke="#00C2C1" stroke-linecap="round" stroke-linejoin="round"/>
</svg>
