<svg width="15" height="15" viewBox="0 0 15 15" fill="none" xmlns="http://www.w3.org/2000/svg">
<path d="M0.669643 3.21436C0.267857 3.21436 0 3.48221 0 4.01793V11.7858H1.33929V9.91078C1.33929 9.91078 12.4615 9.93106 13.6607 9.91078V11.7858H15V9.24114V5.08936C15 4.73606 14.8521 4.28578 14.3304 4.28578C13.8086 4.28578 13.6607 4.73606 13.6607 5.08936V8.5715H1.33929V4.01793C1.33929 3.48221 1.07143 3.21436 0.669643 3.21436ZM3.75 4.28578C2.8624 4.28578 2.14286 5.00533 2.14286 5.89293C2.14286 6.78053 2.8624 7.50007 3.75 7.50007C4.6376 7.50007 5.35714 6.78053 5.35714 5.89293C5.35714 5.00533 4.6376 4.28578 3.75 4.28578ZM5.89286 5.35721V7.50007H12.8571C12.8571 6.42864 11.747 5.35721 10.7143 5.35721H5.89286Z" fill="#00C2C1"/>
</svg>
