<svg width="31" height="30" viewBox="0 0 31 30" fill="none" xmlns="http://www.w3.org/2000/svg">
<path d="M17.343 1.00916C17.343 0.454621 17.8901 0 18.572 0C19.254 0 19.801 0.449625 19.801 1.00916V5.42048C19.801 5.97502 19.254 6.42964 18.572 6.42964C17.8901 6.42964 17.343 5.98002 17.343 5.42048V1.00916ZM3.34971 14.2806C3.27977 14.2806 3.21732 13.9734 3.21732 13.5987C3.21732 13.224 3.27227 12.9192 3.34971 12.9192H6.70691C6.77685 12.9192 6.8393 13.2265 6.8393 13.5987C6.8393 13.9734 6.78435 14.2806 6.70691 14.2806H3.34971ZM8.69775 14.2806C8.62781 14.2806 8.56536 13.9734 8.56536 13.5987C8.56536 13.224 8.62032 12.9192 8.69775 12.9192H12.055C12.1249 12.9192 12.1873 13.2265 12.1873 13.5987C12.1873 13.9734 12.1324 14.2806 12.055 14.2806H8.69775ZM14.0483 14.2806C13.9784 14.2806 13.9159 13.9734 13.9159 13.5987C13.9159 13.224 13.9709 12.9192 14.0483 12.9192H17.4055C17.4754 12.9192 17.5379 13.224 17.5379 13.5962C17.2007 13.806 16.8784 14.0333 16.5687 14.2806H14.0483ZM3.3572 18.1848C3.28726 18.1848 3.22481 17.8776 3.22481 17.5029C3.22481 17.1282 3.27977 16.821 3.3572 16.821H6.7144C6.78435 16.821 6.84679 17.1282 6.84679 17.5029C6.84679 17.8801 6.79184 18.1848 6.7144 18.1848H3.3572ZM8.70525 18.1848C8.6353 18.1848 8.57286 17.8776 8.57286 17.5029C8.57286 17.1282 8.62781 16.821 8.70525 16.821H12.0624C12.1324 16.821 12.1948 17.1282 12.1948 17.5029C12.1948 17.8801 12.1399 18.1848 12.0624 18.1848H8.70525ZM3.3622 22.0891C3.29226 22.0891 3.22981 21.7818 3.22981 21.4072C3.22981 21.03 3.28476 20.7252 3.3622 20.7252H6.7194C6.78934 20.7252 6.85179 21.0325 6.85179 21.4072C6.85179 21.7818 6.79684 22.0891 6.7194 22.0891H3.3622ZM8.71274 22.0891C8.6428 22.0891 8.58035 21.7818 8.58035 21.4072C8.58035 21.03 8.6353 20.7252 8.71274 20.7252H12.0699C12.1399 20.7252 12.2023 21.0325 12.2023 21.4072C12.2023 21.7818 12.1474 22.0891 12.0699 22.0891H8.71274ZM6.29725 1.00916C6.29725 0.452123 6.8443 0 7.52623 0C8.20816 0 8.7552 0.449625 8.7552 1.00916V5.42048C8.7552 5.97502 8.20566 6.42964 7.52623 6.42964C6.8443 6.42964 6.29725 5.98002 6.29725 5.42048V1.00916ZM1.35387 9.64446H24.7769V4.5662C24.7769 4.39134 24.7069 4.23897 24.5945 4.12906C24.4821 4.01665 24.3222 3.94671 24.1574 3.94671H21.9117C21.5346 3.94671 21.2298 3.63947 21.2298 3.26478C21.2298 2.89009 21.5346 2.58285 21.9117 2.58285H24.1574C24.7069 2.58285 25.2015 2.80516 25.5612 3.16486C25.9234 3.52706 26.1432 4.01915 26.1432 4.56869V12.632C25.6961 12.4771 25.234 12.3522 24.7619 12.2598V11.0008H24.7769H1.35387V24.1549C1.35387 24.3297 1.42381 24.4821 1.53622 24.592C1.64863 24.7044 1.80849 24.7744 1.97336 24.7744H13.1041C13.2315 25.2465 13.3913 25.7086 13.5812 26.1507H1.98585C1.4388 26.1507 0.941715 25.9284 0.582015 25.5687C0.222315 25.209 0 24.7169 0 24.1674V4.57119C0 4.02415 0.222315 3.52706 0.582015 3.16736C0.944213 2.80516 1.4363 2.58535 1.98585 2.58535H4.38385C4.75853 2.58535 5.06578 2.89259 5.06578 3.26728C5.06578 3.64197 4.75853 3.94921 4.38385 3.94921H1.98585C1.81099 3.94921 1.65862 4.01915 1.54871 4.13156C1.4363 4.24396 1.36636 4.40383 1.36636 4.56869V9.64696L1.35387 9.64446ZM10.7236 3.94671C10.3489 3.94671 10.0416 3.63947 10.0416 3.26478C10.0416 2.89009 10.3489 2.58285 10.7236 2.58285H15.2948C15.6719 2.58285 15.9767 2.89009 15.9767 3.26478C15.9767 3.64196 15.6694 3.94671 15.2948 3.94671H10.7236Z" fill="#00C2C1"/>
<path fill-rule="evenodd" clip-rule="evenodd" d="M22.7534 14.1207C24.9466 14.1207 26.9324 15.01 28.3687 16.4463C29.8025 17.8851 30.6918 19.8709 30.6918 22.0616C30.6918 24.2523 29.8025 26.2406 28.3687 27.6769C26.9299 29.1132 24.9441 30.0025 22.7534 30.0025C20.5627 30.0025 18.5744 29.1132 17.1381 27.6769C15.7018 26.2381 14.8125 24.2523 14.8125 22.0616C14.8125 19.8709 15.7018 17.8826 17.1381 16.4463C18.5744 15.01 20.5602 14.1207 22.7534 14.1207ZM19.2563 22.9059C19.2188 22.8659 19.1864 22.8235 19.1589 22.7785C19.1289 22.7336 19.1064 22.6861 19.0839 22.6361C19.014 22.4713 18.9965 22.2964 19.0265 22.1266C19.0565 21.9592 19.1314 21.7993 19.2513 21.6694L19.2963 21.6245C19.5935 21.3422 20.0431 21.2898 20.3953 21.5021C20.4453 21.5321 20.4928 21.567 20.5377 21.6095L20.5427 21.6145C20.7925 21.8543 21.2147 22.2465 21.4919 22.4913L21.7292 22.7036L24.6418 19.6486C24.6818 19.6062 24.7267 19.5687 24.7767 19.5362C24.8267 19.5013 24.8766 19.4738 24.9291 19.4513C24.9815 19.4288 25.039 19.4088 25.0964 19.3963C25.1539 19.3839 25.2138 19.3764 25.2713 19.3764H25.2738C25.3312 19.3764 25.3887 19.3789 25.4461 19.3888C25.5036 19.3988 25.5585 19.4138 25.6185 19.4363C25.6734 19.4563 25.7259 19.4838 25.7759 19.5137C25.8233 19.5437 25.8683 19.5787 25.9132 19.6212L25.9332 19.6411C25.9732 19.6811 26.0107 19.7261 26.0431 19.7735C26.0756 19.821 26.1056 19.8734 26.1281 19.9259C26.153 19.9784 26.1705 20.0358 26.183 20.0933C26.1955 20.1507 26.203 20.2082 26.2055 20.2681V20.2981C26.2055 20.3505 26.2005 20.403 26.1905 20.453C26.1805 20.5079 26.1655 20.5654 26.1456 20.6178C26.1256 20.6728 26.0981 20.7252 26.0681 20.7752C26.0381 20.8251 26.0007 20.8701 25.9607 20.9126L22.4386 24.602C22.3962 24.647 22.3537 24.6844 22.3063 24.7169C22.2588 24.7519 22.2063 24.7794 22.1539 24.8043C22.1014 24.8293 22.044 24.8468 21.9865 24.8618C21.9291 24.8768 21.8716 24.8843 21.8117 24.8868H21.7967C21.7417 24.8868 21.6868 24.8843 21.6368 24.8768L21.6243 24.8743C21.5719 24.8643 21.5194 24.8518 21.4695 24.8343C21.4145 24.8143 21.362 24.7893 21.3121 24.7594L21.3046 24.7544C21.2571 24.7244 21.2122 24.6919 21.1697 24.657L21.1622 24.6495C20.9574 24.4596 20.7351 24.2673 20.5128 24.0724C20.1206 23.7352 19.581 23.2481 19.2563 22.9059Z" fill="#6BBE66"/>
</svg>
