<svg width="10" height="10" viewBox="0 0 10 10" fill="none" xmlns="http://www.w3.org/2000/svg">
<path d="M1.5219 0.514723L1.5219 0.514725L0.503949 2.27787L0.503944 2.27787C0.498685 2.28698 0.498685 2.2982 0.503944 2.30731L0.50395 2.30732L1.5219 4.07048C1.52716 4.07959 1.53688 4.0852 1.5474 4.0852H3.5833C3.59383 4.0852 3.60355 4.07956 3.60878 4.07051L3.6088 4.07047L4.62675 2.30735C4.63202 2.29823 4.63202 2.28699 4.62678 2.27787L1.5219 0.514723ZM1.5219 0.514723C1.52716 0.505613 1.53688 0.5 1.5474 0.5H3.5833C3.59383 0.5 3.60355 0.505641 3.60878 0.514692L3.6088 0.51473L4.62675 2.27783L1.5219 0.514723Z" stroke="#00C2C1"/>
<path d="M3.65126 5.92952L3.65124 5.92948C3.64599 5.9204 3.6363 5.91479 3.62578 5.91479H1.58988C1.57936 5.91479 1.56964 5.9204 1.56438 5.92951C1.56438 5.92951 1.56438 5.92951 1.56438 5.92951L0.546431 7.69269L0.546424 7.6927C0.541166 7.70181 0.541166 7.71303 0.546424 7.72214L0.546428 7.72214L1.56438 9.48527L1.13136 9.73527L1.56438 9.48527C1.56964 9.49438 1.57936 9.49999 1.58988 9.49999H3.62578C3.6363 9.49999 3.64599 9.49439 3.65124 9.4853L3.65126 9.48526L4.66921 7.72218L3.65126 5.92952ZM3.65126 5.92952L4.66921 7.69266L3.65126 5.92952ZM4.66923 7.69269C4.67447 7.7018 4.67448 7.71303 4.66924 7.72214L4.66923 7.69269Z" stroke="#00C2C1"/>
<path d="M6.32954 3.28224L6.32952 3.28228L5.31157 5.0454L6.32954 3.28224ZM6.32954 3.28224C6.33477 3.27319 6.3445 3.26755 6.35502 3.26755H8.39091C8.40145 3.26755 8.41114 3.27316 8.41639 3.28224L8.41641 3.28228M6.32954 3.28224L8.41641 3.28228M8.41641 3.28228L9.43436 5.0454L8.41641 3.28228ZM8.41639 6.83805L8.41641 6.83801L9.43436 5.07492L8.41639 6.83805ZM8.41639 6.83805C8.41114 6.84713 8.40145 6.85274 8.39091 6.85274H6.35502C6.3445 6.85274 6.33477 6.8471 6.32954 6.83805L6.32952 6.83801M8.41639 6.83805L6.32952 6.83801M6.32952 6.83801L5.31157 5.07492M6.32952 6.83801L5.31157 5.07492M5.31157 5.07492C5.31156 5.07491 5.31155 5.07489 5.31155 5.07488C5.30631 5.06577 5.30631 5.05455 5.31155 5.04544L5.31157 5.07492ZM9.43438 5.04544C9.43962 5.05455 9.43962 5.06577 9.43438 5.07488L9.43438 5.04544Z" stroke="#00C2C1"/>
</svg>
