<svg width="16" height="18" viewBox="0 0 16 18" fill="none" xmlns="http://www.w3.org/2000/svg">
<path d="M9.09998 2.79999C8.54938 4.34199 6.58133 5.41549 5.34998 5.59999" stroke="#747474" stroke-linecap="round" stroke-linejoin="round"/>
<path d="M9.79996 1.20264C4.16726 0.00607819 2.83835 6.20129 4.80516 7.34999" stroke="#747474" stroke-linecap="round" stroke-linejoin="round"/>
<path d="M10.8 1.70001C13.1373 2.77025 12.4488 4.43271 11.6368 6.20001" stroke="#747474" stroke-linecap="round" stroke-linejoin="round"/>
<path d="M11.0451 5.10001C12.7788 10.4041 5.09998 11.5482 5.09998 6.83006" stroke="#747474" stroke-linecap="round" stroke-linejoin="round"/>
<path d="M8.94462 6.65C8.96492 6.50155 8.92302 6.3877 8.90002 6.25" stroke="#747474" stroke-linecap="round" stroke-linejoin="round"/>
<path d="M7.55005 6.69999C7.55005 6.56659 7.55005 6.43339 7.55005 6.29999" stroke="#747474" stroke-linecap="round" stroke-linejoin="round"/>
<path d="M1 16.2751C1 14.4761 2.16874 10.2163 6.1791 10.4124C7.29625 10.4671 7.562 16.5918 8.3031 16.2751C9.6 15.7208 9.1723 11.7116 10.1786 10.2079C15.001 9.95135 15.05 16.0286 15.05 16.95" stroke="#747474" stroke-linecap="round" stroke-linejoin="round"/>
<path d="M12.8 12.55C12.4182 11.6832 11.3551 10.5204 10.35 10.4" stroke="#747474" stroke-linecap="round" stroke-linejoin="round"/>
<path d="M6.15 10.6C4.9635 11.3198 4.4483 12.3919 4 13.6" stroke="#747474" stroke-linecap="round" stroke-linejoin="round"/>
<path d="M2.65112 16.3998C2.5226 15.502 2.58424 14.3566 3.45373 13.8333C5.89843 12.3619 5.58588 17.1439 4.40688 16.2992" stroke="#747474" stroke-linecap="round" stroke-linejoin="round"/>
<path d="M12.6535 12.5519C14.0945 12.4892 12.189 13.9696 12.5453 12.6519" stroke="#747474" stroke-linecap="round" stroke-linejoin="round"/>
<path d="M13.2 15.2145C12.593 15.1364 12.1238 15.3977 11.55 15.45" stroke="#747474" stroke-linecap="round" stroke-linejoin="round"/>
</svg>
