<svg width="13" height="12" viewBox="0 0 13 12" fill="none" xmlns="http://www.w3.org/2000/svg">
<path d="M1 11H11.2656H1ZM1 11V8.4336L7.97329 1.46028L7.97445 1.45919C8.22775 1.20583 8.35466 1.07893 8.50095 1.0314C8.62984 0.989532 8.76862 0.989532 8.89752 1.0314C9.04368 1.0789 9.17045 1.20566 9.42344 1.45865L10.5397 2.57491C10.7938 2.82899 10.9209 2.95609 10.9685 3.10259C11.0104 3.23145 11.0103 3.37025 10.9685 3.49912C10.9209 3.64551 10.794 3.77241 10.5403 4.02614L10.5397 4.02668L3.5664 11H1Z" fill="white"/>
<path d="M1 11H11.2656M1 11V8.4336L7.97329 1.46028L7.97445 1.45919C8.22775 1.20583 8.35466 1.07893 8.50095 1.0314C8.62984 0.989532 8.76862 0.989532 8.89752 1.0314C9.04368 1.0789 9.17046 1.20566 9.42344 1.45865L10.5397 2.57491C10.7938 2.82899 10.9209 2.95609 10.9685 3.10259C11.0104 3.23145 11.0103 3.37025 10.9685 3.49912C10.9209 3.64551 10.794 3.77241 10.5403 4.02614L10.5397 4.02668L3.5664 11H1Z" stroke="#00C2C1" stroke-width="2" stroke-linecap="round" stroke-linejoin="round"/>
</svg>
