<svg width="16" height="16" viewBox="0 0 16 16" fill="none" xmlns="http://www.w3.org/2000/svg">
<path fill-rule="evenodd" clip-rule="evenodd" d="M6.56983 14.9728C10.7896 15.7929 14.641 12.8543 15.0735 8.7613C8.61671 12.7319 3.28747 7.3912 7.2427 0.925116C3.1489 1.35536 0.206861 5.20841 1.02723 9.43025C1.42524 11.4813 2.76634 13.2747 4.61974 14.2736C4.83589 14.3901 4.91667 14.6597 4.80019 14.8758C4.68371 15.092 4.41407 15.1728 4.19792 15.0563C2.11205 13.9322 0.603669 11.915 0.154375 9.59973C-0.80586 4.65811 2.8332 0.156627 7.74423 0.000282614C8.16956 -0.0123212 8.47325 0.398811 8.35926 0.799322L8.29924 0.927707C4.18934 6.96831 9.03968 11.8288 15.0695 7.704L15.1958 7.64425C15.5973 7.52684 16.0146 7.83168 15.9987 8.25848C15.8424 13.1681 11.3414 16.8059 6.40018 15.8456C6.15917 15.7987 6.00175 15.5653 6.04861 15.3243C6.09542 15.0833 6.32878 14.9259 6.56983 14.9728ZM2.76936 9.0745C3.17228 11.1505 4.84963 12.8278 6.92563 13.2308C7.16668 13.2775 7.32415 13.5109 7.27738 13.7519C7.23056 13.993 6.99725 14.1504 6.75624 14.1037C4.32422 13.6316 2.36848 11.6759 1.89647 9.24389C1.84971 9.00284 2.00717 8.76952 2.24822 8.72275C2.48923 8.67598 2.72254 8.83345 2.76936 9.0745Z" fill="#212129"/>
</svg>
