<svg width="11" height="7" viewBox="0 0 11 7" fill="none" xmlns="http://www.w3.org/2000/svg">
<path d="M0.491071 0.357178C0.196429 0.357178 0 0.553606 0 0.946463V6.64289H0.982143V5.26789C0.982143 5.26789 9.1384 5.28276 10.0179 5.26789V6.64289H11V4.77682V1.73218C11 1.47309 10.8916 1.14289 10.5089 1.14289C10.1263 1.14289 10.0179 1.47309 10.0179 1.73218V4.28575H0.982143V0.946463C0.982143 0.553606 0.785714 0.357178 0.491071 0.357178ZM2.75 1.14289C2.09909 1.14289 1.57143 1.67056 1.57143 2.32146C1.57143 2.97237 2.09909 3.50003 2.75 3.50003C3.40091 3.50003 3.92857 2.97237 3.92857 2.32146C3.92857 1.67056 3.40091 1.14289 2.75 1.14289ZM4.32143 1.92861V3.50003H9.42857C9.42857 2.71432 8.61443 1.92861 7.85714 1.92861H4.32143Z" fill="white"/>
</svg>
