<svg width="24" height="24" viewBox="0 0 24 24" fill="none" xmlns="http://www.w3.org/2000/svg">
<path d="M8.90625 0C7.82181 0 6.93333 0.888472 6.93333 1.97292V7.68021C6.93333 8.76465 7.82181 9.65313 8.90625 9.65313H14.6135C15.698 9.65313 16.5865 8.76465 16.5865 7.68021V1.97292C16.5865 1.9611 16.5862 1.94929 16.5854 1.9375C16.5145 0.873779 15.6449 0 14.5604 0H8.90625ZM8.90625 1.06667H14.5604C15.0752 1.06667 15.4829 1.47123 15.5198 2.00625V7.68021C15.5198 8.19576 15.1291 8.58646 14.6135 8.58646H8.90625C8.39069 8.58646 8 8.19576 8 7.68021V1.97292C8 1.45736 8.39069 1.06667 8.90625 1.06667ZM11.2 2.66667V4.26667H9.6V5.33333H11.2V6.93333H12.2667V5.33333H13.8667V4.26667H12.2667V2.66667H11.2ZM1.97292 4.26667C0.888472 4.26667 0 5.15514 0 6.23958V24H24V6.23958C24 5.15514 23.1115 4.26667 22.0271 4.26667H17.6V5.33333H22.0271C22.5426 5.33333 22.9333 5.72403 22.9333 6.23958V22.9333H14.4V17.0667H13.8667H11.9469H9.06667V22.9333H1.06667V6.23958C1.06667 5.72403 1.45736 5.33333 1.97292 5.33333H5.86667V4.26667H1.97292ZM2.11146 11.1781V15.4885H6.95521V11.1781H6.4H4.21354H2.11146ZM9.04479 11.1781V15.4885H14.4219V11.1781H13.8667H11.6802H9.04479ZM16.5115 11.1781V15.4885H21.3552V11.1781H20.8H19.1469H16.5115ZM3.22188 12.2885H4.21354H5.84479V14.3781H3.22188V12.2885ZM10.1552 12.2885H11.6802H13.3115V14.3781H10.1552V12.2885ZM17.6219 12.2885H19.1469H20.2448V14.3781H17.6219V12.2885ZM2.11146 17.0448V21.3552H6.95521V17.0448H6.4H4.21354H2.11146ZM16.5115 17.0448V21.3552H21.3552V17.0448H20.8H19.1469H16.5115ZM10.1333 18.1333H11.9469H13.3333V22.9333H10.1333V18.1333ZM3.22188 18.1552H4.21354H5.84479V20.2448H3.22188V18.1552ZM17.6219 18.1552H19.1469H20.2448V20.2448H17.6219V18.1552Z" fill="#00C2C1"/>
</svg>
