<svg width="26" height="26" viewBox="0 0 26 26" fill="none" xmlns="http://www.w3.org/2000/svg">
<path d="M12.9785 0.61293C7.46143 0.61293 2.76882 4.13741 1.02632 9.05727H24.9307C23.1882 4.13741 18.4956 0.61293 12.9785 0.61293Z" fill="#F0953E"/>
<path d="M1.02841 17.5273C2.77229 22.4443 7.46352 25.9667 12.9785 25.9667C18.4935 25.9667 23.1848 22.4443 24.9286 17.5273H1.02841Z" fill="#3B8916"/>
<path d="M25.6554 13.2898C25.6554 11.8058 25.3998 10.3813 24.9307 9.05727H1.02702C0.557965 10.3806 0.302307 11.8051 0.302307 13.2898C0.302307 14.7746 0.558658 16.2018 1.0291 17.5273H24.9286C25.3984 16.2018 25.6554 14.776 25.6554 13.2898Z" fill="white"/>
<path d="M12.9785 9.48891C10.8792 9.48891 9.17482 11.1885 9.17482 13.2871C9.17482 15.3857 10.8792 17.0908 12.9785 17.0908C15.0778 17.0908 16.7822 15.3864 16.7822 13.2871C16.7794 11.1878 15.0778 9.48891 12.9785 9.48891ZM12.9757 9.8582L12.8794 11.7704L12.9834 12.8575L13.0797 11.7704L12.9834 9.8582C13.0845 9.8582 13.1808 9.86305 13.2764 9.87344C13.2764 9.87829 13.2716 9.87829 13.2716 9.88383C13.2716 9.97529 13.3423 10.0508 13.4282 10.0508C13.5092 10.0508 13.5751 9.98499 13.5827 9.90947C13.679 9.92956 13.7697 9.9448 13.8633 9.97529L13.2764 11.7961L13.0894 12.8734L13.4684 11.8418L13.873 9.97529C13.9644 10.0058 14.0552 10.0307 14.146 10.0661C14.1411 10.0813 14.1335 10.1014 14.1335 10.1215C14.1335 10.2074 14.2042 10.2781 14.2928 10.2781C14.3531 10.2781 14.4141 10.2379 14.4369 10.1818C14.5229 10.2219 14.6067 10.2677 14.6926 10.3182L13.6533 11.9166L13.1933 12.9178L13.8279 12.0226L14.7002 10.3231C14.7785 10.3688 14.8596 10.4194 14.9406 10.47C14.9178 10.5005 14.9053 10.5303 14.9053 10.5711C14.9053 10.657 14.976 10.7277 15.0647 10.7277C15.1152 10.7277 15.161 10.7076 15.1887 10.6619C15.2649 10.7277 15.3356 10.7935 15.4007 10.8594L13.9845 12.139L13.2841 12.9836L14.1259 12.2859L15.4083 10.8649C15.4741 10.9356 15.5399 11.0014 15.6002 11.0769C15.5621 11.1074 15.5448 11.1531 15.5448 11.1982C15.5448 11.2841 15.6155 11.3547 15.6993 11.3547C15.7374 11.3547 15.7651 11.3443 15.7928 11.3242C15.851 11.4053 15.9016 11.4864 15.9473 11.5667L14.2478 12.437L13.3526 13.0744L14.3469 12.6192L15.9529 11.5723C16.0062 11.663 16.0492 11.7594 16.0921 11.8404C16.0388 11.8654 15.9958 11.9263 15.9958 11.9921C15.9958 12.0781 16.0665 12.1487 16.1503 12.1487C16.1753 12.1487 16.1933 12.1439 16.2106 12.1335C16.2411 12.2242 16.2688 12.3102 16.2917 12.4016L14.4231 12.7958L13.3991 13.1755L14.4764 12.9933L16.2972 12.412C16.3201 12.4931 16.3429 12.5942 16.3603 12.685C16.282 12.6954 16.2238 12.7557 16.2238 12.8416C16.2238 12.9275 16.2972 12.9982 16.3831 12.9982H16.3984C16.4088 13.0889 16.4088 13.1901 16.4088 13.2815L14.5021 13.1908L13.4095 13.2871L14.5021 13.3931L16.4088 13.2919C16.4088 13.3931 16.4088 13.4894 16.3984 13.5801H16.3831C16.2972 13.5801 16.2238 13.6564 16.2238 13.7367C16.2238 13.8171 16.282 13.8781 16.3575 13.8933C16.3395 13.9896 16.3194 14.0804 16.2965 14.1711L15.6466 13.964L14.4757 13.5843L13.3984 13.4021L14.4224 13.7818L16.291 14.1815C16.2681 14.2723 16.2404 14.3686 16.2051 14.4497C16.2002 14.4497 16.1898 14.4448 16.185 14.4448H16.1496C16.061 14.4448 15.9903 14.5106 15.9903 14.6014C15.9903 14.6263 15.9951 14.6416 16.0055 14.6624C16.0132 14.6873 16.0284 14.7081 16.0485 14.7226C16.0533 14.7226 16.0561 14.7275 16.061 14.7275C16.0658 14.7323 16.0714 14.7379 16.0762 14.7379C16.0762 14.7379 16.0838 14.7427 16.0866 14.7483C16.0464 14.8342 16.0007 14.9201 15.9529 15.0012L14.3496 13.964H14.3469L13.3526 13.5088H13.3575L13.8785 13.8732L14.2478 14.1365L15.9473 15.0067C15.8968 15.0926 15.8462 15.1785 15.7908 15.2547C15.7658 15.2395 15.7326 15.2298 15.7 15.2298C15.6113 15.2298 15.5434 15.2956 15.5434 15.3815C15.5434 15.4321 15.5635 15.4778 15.6016 15.5028C15.5386 15.5734 15.4755 15.6441 15.4097 15.7099L14.1272 14.2938L13.2875 13.5961L13.9852 14.4406L15.4014 15.7203C15.3356 15.791 15.2697 15.8464 15.1963 15.9074C15.1658 15.8824 15.1333 15.8721 15.0979 15.8721C15.012 15.8721 14.9413 15.9483 14.9413 16.0286C14.9413 16.0591 14.9462 16.0792 14.9538 16.0993C14.8707 16.1499 14.7848 16.2053 14.7009 16.2614L13.8286 14.5619L13.194 13.6619L13.652 14.6582L14.6912 16.2663C14.6081 16.312 14.5242 16.357 14.4383 16.3979C14.4155 16.337 14.36 16.3016 14.297 16.3016C14.2083 16.3016 14.1376 16.3778 14.1376 16.4582C14.1376 16.4783 14.1425 16.4984 14.148 16.5185C14.0573 16.549 13.9686 16.5794 13.8751 16.5995L13.4704 14.7282L13.0914 13.7118V13.7069L13.2785 14.7843L13.8654 16.6051C13.7718 16.63 13.6783 16.6557 13.5848 16.6654C13.5723 16.5947 13.5065 16.5337 13.4302 16.5337C13.3395 16.5337 13.2737 16.6044 13.2737 16.6855V16.7055C13.1774 16.7159 13.0817 16.7208 12.9854 16.7208L13.0817 14.8141L12.9806 13.7215L12.8822 14.8141L12.9785 16.7208C12.8774 16.7208 12.7838 16.7159 12.6854 16.7055V16.6855C12.6854 16.6044 12.6148 16.5337 12.5261 16.5337C12.4499 16.5337 12.3848 16.594 12.3716 16.6654C12.2781 16.6501 12.1873 16.63 12.0986 16.6051L12.6854 14.7843L12.8677 13.7118L12.4887 14.7282L12.0889 16.5995C11.9981 16.5794 11.9067 16.549 11.8132 16.5185C11.8208 16.4984 11.8256 16.4783 11.8256 16.4582C11.8256 16.3771 11.755 16.3016 11.6711 16.3016C11.6053 16.3016 11.5499 16.3418 11.5222 16.3979C11.4383 16.357 11.3524 16.312 11.2693 16.2663L12.3085 14.6582L12.7637 13.6619L12.1312 14.557L11.261 16.2614C11.1778 16.206 11.094 16.1554 11.0157 16.0993C11.033 16.0792 11.0462 16.0487 11.0462 16.0134C11.0462 15.9226 10.9755 15.8513 10.8917 15.8513C10.8383 15.8513 10.7954 15.8769 10.7704 15.9122C10.6942 15.8464 10.6236 15.791 10.5577 15.7203L11.9787 14.4406L12.6764 13.5961L11.8346 14.2938L10.5522 15.7099C10.4815 15.6441 10.4185 15.5686 10.3547 15.5028C10.3901 15.4723 10.4157 15.4266 10.4157 15.376C10.4157 15.2901 10.345 15.2242 10.2591 15.2242C10.2238 15.2242 10.1905 15.2346 10.1656 15.2499C10.1102 15.1737 10.0596 15.0933 10.0111 15.0074L11.7155 14.1323L12.603 13.5102L11.6088 13.9654L10.0055 15.0025C9.95773 14.9215 9.91962 14.8404 9.87667 14.7497C9.93695 14.7296 9.97782 14.6734 9.97782 14.6083C9.97782 14.5176 9.90923 14.4462 9.81847 14.4462C9.79561 14.4462 9.77274 14.451 9.75265 14.4614C9.72216 14.3755 9.69168 14.2792 9.66397 14.1836L11.5353 13.7838L12.5649 13.4042L11.4827 13.5864L9.66189 14.1732C9.63695 14.0824 9.61893 13.991 9.59884 13.8898C9.67713 13.8794 9.73533 13.8192 9.73533 13.7381C9.73533 13.6522 9.66466 13.5815 9.57875 13.5815H9.56073C9.55588 13.4908 9.54826 13.3945 9.54826 13.2933L11.4577 13.3945L12.5476 13.2885L11.4577 13.1921L9.54826 13.2829C9.54826 13.1921 9.55588 13.091 9.56073 12.9995H9.58845C9.67436 12.9995 9.74503 12.9337 9.74503 12.843C9.74503 12.757 9.68198 12.6961 9.59815 12.6864C9.61824 12.5956 9.63625 12.4945 9.66119 12.4134L11.482 12.9947L12.5642 13.1769L11.5346 12.7972L9.66327 12.3975C9.69099 12.3012 9.72147 12.2104 9.75196 12.1245C9.7672 12.1293 9.79214 12.1349 9.81016 12.1349C9.89884 12.1349 9.96674 12.0642 9.96674 11.9783C9.96674 11.9125 9.92655 11.857 9.8732 11.837C9.91339 11.7455 9.95704 11.6596 10.0048 11.5737L11.6081 12.6206L12.6072 13.0758L11.7148 12.4383L10.0104 11.5681C10.0582 11.4871 10.1115 11.406 10.167 11.3201C10.1898 11.3457 10.2272 11.3554 10.2605 11.3554C10.3443 11.3554 10.4171 11.2848 10.4171 11.1988C10.4171 11.1531 10.3921 11.1081 10.3589 11.0721C10.4171 11.0014 10.4801 10.9356 10.5487 10.8649L11.8312 12.2859L12.6757 12.9836L11.9781 12.139L10.557 10.8594C10.6277 10.7935 10.6963 10.7277 10.7697 10.6667C10.7947 10.7021 10.8404 10.7277 10.891 10.7277C10.9797 10.7277 11.0503 10.657 11.0503 10.5656C11.0503 10.5303 11.0351 10.4998 11.0178 10.4693C11.0988 10.4236 11.1771 10.3681 11.2603 10.3224L12.1305 12.0219L12.763 12.9122L12.3078 11.9159L11.2686 10.3176C11.3517 10.267 11.4356 10.2212 11.5187 10.1811C11.5443 10.242 11.5998 10.2822 11.6656 10.2822C11.7543 10.2822 11.8222 10.2115 11.8222 10.1305C11.8222 10.1048 11.8173 10.0799 11.8118 10.0647C11.9005 10.0293 11.9961 10.0037 12.0875 9.9739L12.4921 11.8404L12.8718 12.8721L12.6875 11.7947L12.1007 9.9739C12.1914 9.94342 12.2829 9.92818 12.3785 9.90808C12.3889 9.9843 12.4547 10.0446 12.533 10.0446C12.6217 10.0446 12.6924 9.9739 12.6924 9.88245V9.86721C12.7859 9.85681 12.8822 9.85681 12.9778 9.85681" fill="#16007E"/>
<path d="M12.9841 12.721C13.2979 12.721 13.5508 12.9788 13.5508 13.2878C13.5508 13.5968 13.2979 13.8594 12.9841 13.8594C12.6702 13.8594 12.4125 13.6016 12.4125 13.2878C12.4125 12.9739 12.6654 12.721 12.9841 12.721Z" fill="white"/>
<path d="M12.9841 12.8527C13.2245 12.8527 13.4212 13.0453 13.4212 13.2878C13.4212 13.5303 13.2238 13.7326 12.9841 13.7326C12.7443 13.7326 12.5393 13.5351 12.5393 13.2878C12.5393 13.0404 12.7388 12.8527 12.9841 12.8527Z" fill="#16007E"/>
</svg>
