<svg width="18" height="24" viewBox="0 0 18 24" fill="none" xmlns="http://www.w3.org/2000/svg">
<path d="M6.29433 8.96399L5.05786 10.5939L8.19 12.9701L9.42642 11.3406L8.84424 10.8989L8.04947 11.9463L6.08166 10.4533L6.87647 9.40565L6.29433 8.96399Z" fill="#00C2C1"/>
<path d="M17.9581 12.5331V12.526C17.9581 11.094 17.5928 9.7388 16.9499 8.5552C16.61 7.93055 16.1901 7.35333 15.7042 6.83822C15.7077 6.80897 15.7077 6.77972 15.7077 6.7508C15.7077 6.22106 15.5322 5.7352 15.2365 5.34066L16.6064 3.53592L11.9417 0L5.82303 8.06573L10.4877 11.6017L12.5043 8.93869C12.7672 9.04463 13.0558 9.10312 13.3551 9.10312C13.454 9.10312 13.5524 9.096 13.6476 9.08494C13.8924 9.36605 14.1042 9.67678 14.283 10.0053C14.6922 10.758 14.9223 11.6127 14.9223 12.5331C14.9223 14.0054 14.3308 15.3206 13.3662 16.2849C12.402 17.2492 11.0867 17.8374 9.6148 17.841C9.32623 17.841 9.04119 17.8192 8.7672 17.7718C7.92355 17.6365 7.14908 17.3041 6.48767 16.8182H5.36642C5.39178 16.8439 5.41747 16.8692 5.44316 16.8949V16.8985C6.33425 17.7496 7.48508 18.3344 8.7672 18.513C9.04475 18.5498 9.32623 18.5715 9.6148 18.5715C11.2839 18.5715 12.789 17.8959 13.8849 16.8036C14.9772 15.7077 15.6529 14.2026 15.6529 12.5331C15.6529 11.4886 15.39 10.5097 14.9262 9.65461C14.7728 9.3735 14.5973 9.10664 14.4 8.85483C14.8895 8.61366 15.2804 8.20809 15.4995 7.70761C15.8062 8.08036 16.0767 8.47847 16.3068 8.90583C16.895 9.98353 17.2275 11.2218 17.2275 12.5295V12.537C17.2275 14.6375 16.3728 16.5406 14.999 17.9141C14.4111 18.5024 13.7279 18.9918 12.9717 19.3642L12.4711 19.6129L14.2648 21.1286C14.6704 21.4722 14.9041 21.9762 14.9041 22.5096V23.2694H5.73533V22.5096C5.73533 21.9762 5.96895 21.4722 6.37817 21.1251L7.36456 20.2885L7.76975 19.945L7.15976 19.737C6.10062 19.3753 5.14348 18.791 4.35439 18.0347C3.97091 17.6694 3.62736 17.2602 3.32811 16.8182H2.46228C2.84576 17.4646 3.31344 18.0493 3.85034 18.5644C4.56631 19.2476 5.41002 19.8062 6.33786 20.2008L6.23586 20.2885L5.90342 20.5696C5.33333 21.0519 5.00478 21.7643 5.00478 22.5096V24H15.6347V22.5096C15.6347 21.7643 15.3062 21.0519 14.7361 20.5696L13.779 19.7587C14.4183 19.3935 14.999 18.9479 15.5142 18.4328C17.0227 16.9277 17.9581 14.8348 17.9581 12.5331ZM14.9408 7.10147C14.8713 7.40827 14.7178 7.68225 14.5024 7.89769C14.3308 8.06569 14.126 8.19736 13.8959 8.27761C13.7279 8.33967 13.5453 8.37253 13.3551 8.37253C12.9535 8.36897 12.5917 8.22661 12.3106 7.98905C12.2739 7.9598 12.2411 7.93055 12.2082 7.89773C11.9161 7.60162 11.737 7.19995 11.737 6.7508C11.737 6.30136 11.9161 5.89964 12.2082 5.60358C12.5044 5.31141 12.906 5.12873 13.3552 5.12873C13.6951 5.12873 14.0055 5.23111 14.2648 5.40984C14.349 5.46478 14.4293 5.53041 14.5024 5.60358C14.6083 5.70952 14.6961 5.82656 14.7689 5.95781C14.7764 5.96887 14.7835 5.9835 14.7875 5.99456C14.9077 6.22106 14.9772 6.47686 14.9772 6.75084C14.9772 6.87103 14.9626 6.98803 14.9408 7.10147ZM14.7103 4.82911C14.3308 4.55906 13.8595 4.39819 13.3551 4.39819C12.0584 4.39819 11.0064 5.4502 11.0064 6.75084C11.0064 7.485 11.3424 8.14247 11.8722 8.56983L10.3454 10.5789L6.84941 7.92342L12.0841 1.02277L15.5836 3.67866L14.7103 4.82911Z" fill="#00C2C1"/>
<path d="M6.1508 16.1789H8.34183V13.7132H0V16.1789H3.30263H6.1508ZM0.730594 14.4438H7.61128V15.4483H6.15084H3.30267H0.730641V14.4438H0.730594Z" fill="#00C2C1"/>
<path d="M13.863 5.93963C13.7168 5.84832 13.5416 5.79732 13.3551 5.79732C12.8292 5.79732 12.4019 6.22111 12.4019 6.75085C12.4019 7.03201 12.5224 7.28419 12.7158 7.45575C12.8549 7.58349 13.0265 7.66768 13.2163 7.69299C13.2202 7.69299 13.2202 7.69299 13.2202 7.69299C13.2638 7.70049 13.3116 7.70405 13.3551 7.70405C13.8848 7.70405 14.3086 7.27669 14.3086 6.75085C14.3086 6.67416 14.3015 6.60104 14.2829 6.52791C14.2248 6.27957 14.071 6.07125 13.863 5.93963ZM13.3551 7.11971C13.1506 7.11971 12.9862 6.95527 12.9862 6.7508C12.9862 6.54605 13.1506 6.38161 13.3551 6.378C13.5598 6.38157 13.7242 6.54605 13.7279 6.7508C13.7242 6.95522 13.5598 7.11971 13.3551 7.11971Z" fill="#00C2C1"/>
</svg>
