<svg width="32" height="30" viewBox="0 0 32 30" fill="none" xmlns="http://www.w3.org/2000/svg">
<g clip-path="url(#clip0_738_19211)">
<path d="M11.7669 8.02238C11.9124 7.67728 12.1815 7.39891 12.5215 7.24174C12.9052 7.0775 13.3345 7.05355 13.7341 7.17408C14.1549 7.29352 14.5483 7.49419 14.892 7.76477C15.5122 8.26563 16.021 8.89051 16.3858 9.59939C16.7505 10.3083 16.9632 11.0855 17.0102 11.8813C17.0478 12.4883 17.0391 13.0972 16.9841 13.7028C16.9503 14.1296 16.8957 14.5798 16.8202 15.0455H21.2256C21.9172 15.0666 22.5958 15.239 23.2136 15.5503C23.705 15.7981 24.1251 16.1671 24.434 16.6224C24.7525 17.1088 24.9083 17.6838 24.879 18.2644C24.8501 18.7901 24.7147 19.3045 24.4809 19.7762C24.6371 20.3701 24.6777 20.9885 24.6006 21.5977C24.5402 22.0653 24.3271 22.4998 23.9943 22.8337C24.02 23.5327 23.9131 24.2302 23.6794 24.8894C23.4651 25.465 23.1307 25.9884 22.6984 26.4247C22.6661 26.7949 22.6008 27.1615 22.5033 27.5202C22.3909 27.941 22.2059 28.339 21.9568 28.6963C21.2074 29.7528 20.6089 29.7372 19.6617 29.6877C19.529 29.6877 19.4015 29.6877 19.1699 29.6877H10.5829C9.91754 29.7148 9.25543 29.5818 8.6521 29.3C8.05507 28.9767 7.537 28.5253 7.13505 27.9781L7.02576 27.6008V17.5956L7.46292 17.4785C8.56102 17.1741 9.43014 16.2347 10.1093 15.0924C10.7547 13.9457 11.2639 12.7274 11.6263 11.4624V8.86026C11.5957 8.57084 11.6442 8.27852 11.7669 8.01457V8.02238ZM0.879525 16.5496H5.13401C5.24986 16.5499 5.3645 16.5731 5.47139 16.6177C5.57828 16.6624 5.67534 16.7276 5.75701 16.8098C5.83868 16.8919 5.90337 16.9894 5.94738 17.0965C5.9914 17.2037 6.01388 17.3185 6.01354 17.4343V29.1257C6.01285 29.3587 5.91996 29.582 5.75517 29.7468C5.59038 29.9116 5.36707 30.0045 5.13401 30.0052H0.879525C0.763683 30.0049 0.649042 29.9817 0.542149 29.9371C0.435255 29.8924 0.338202 29.8272 0.256531 29.745C0.174859 29.6628 0.11017 29.5654 0.0661547 29.4583C0.0221397 29.3511 -0.000338372 29.2363 3.8496e-06 29.1205V17.4343C-0.000338372 17.3185 0.0221397 17.2037 0.0661547 17.0965C0.11017 16.9894 0.174859 16.8919 0.256531 16.8098C0.338202 16.7276 0.435255 16.6624 0.542149 16.6177C0.649042 16.5731 0.763683 16.5499 0.879525 16.5496ZM13.0107 8.293C12.9515 8.33068 12.9014 8.38104 12.864 8.44044C12.8267 8.49984 12.803 8.5668 12.7947 8.63648V11.5535L12.7687 11.72C12.3766 13.1087 11.8192 14.4454 11.1085 15.7013C10.3747 16.9139 9.42493 17.9781 8.18892 18.4751V27.4057C8.458 27.7535 8.79652 28.0415 9.18293 28.2514C9.6258 28.4486 10.1092 28.5378 10.5933 28.5116H19.1803C19.3339 28.5116 19.5316 28.5116 19.719 28.5272C20.281 28.548 20.6349 28.5636 21.02 28.0276C21.1908 27.779 21.3167 27.5025 21.3921 27.2105C21.4878 26.8576 21.5463 26.4957 21.5665 26.1306L21.746 25.7455C22.1241 25.3989 22.4155 24.9684 22.5969 24.4887C22.8034 23.8799 22.8805 23.2347 22.8233 22.5943L22.8025 22.2482L23.0965 22.0661C23.1998 21.9894 23.2853 21.8914 23.3473 21.7787C23.4093 21.666 23.4462 21.5412 23.4556 21.413C23.5133 20.8879 23.4628 20.3565 23.3073 19.8517L23.3542 19.4275C23.5601 19.054 23.6826 18.6403 23.7132 18.2149C23.7302 17.8762 23.639 17.5409 23.453 17.2573C23.2536 16.9693 22.9852 16.7358 22.6724 16.5782C22.2166 16.3499 21.7169 16.223 21.2074 16.2061H15.4202L15.5504 15.5139C15.6753 14.8426 15.7663 14.2129 15.8106 13.5961C15.861 13.0486 15.8706 12.498 15.8392 11.949C15.8039 11.3198 15.6378 10.7049 15.3515 10.1435C15.0652 9.58209 14.665 9.08655 14.1764 8.68852C13.9558 8.51167 13.7031 8.37913 13.4322 8.2982C13.293 8.25082 13.1421 8.25082 13.0029 8.2982L13.0107 8.293Z" fill="#00C2C1"/>
<path fill-rule="evenodd" clip-rule="evenodd" d="M24.6966 1.07805e-05C25.0548 -0.00733466 25.4056 0.10229 25.6958 0.312267C26.0888 0.57248 26.5285 1.05127 27.0724 1.35312C27.8374 1.79028 29.253 1.18658 29.979 2.26647C30.2963 2.74553 30.4589 3.31051 30.4447 3.885C30.4676 4.51557 30.7012 5.12027 31.1083 5.6024C31.9982 6.77857 32.183 7.56181 31.725 8.37888C31.4127 8.93574 30.7544 9.24539 30.6009 9.59668C30.2782 10.3461 30.6347 10.9134 30.1923 11.7877C30.0539 12.0771 29.8576 12.335 29.6154 12.5453C29.3733 12.7557 29.0905 12.9141 28.7846 13.0107C28.2511 13.1824 27.7151 12.9326 27.2883 13.1122C26.5363 13.427 25.9873 14.153 25.3862 14.3482C25.163 14.4181 24.9305 14.4532 24.6966 14.4523C24.4628 14.4536 24.2301 14.4185 24.0071 14.3482C23.4086 14.1608 22.8543 13.4296 22.1023 13.1122C21.6755 12.9326 21.1395 13.1824 20.6061 13.0107C20.2999 12.9165 20.0163 12.7606 19.7728 12.5524C19.5294 12.3443 19.3312 12.0885 19.1905 11.8007C18.7455 10.9264 19.1046 10.3591 18.782 9.60969C18.6284 9.2584 17.9701 8.94875 17.6578 8.39189C17.1999 7.57482 17.3976 6.79158 18.2746 5.61541C18.6816 5.13328 18.9152 4.52858 18.9381 3.89801C18.9257 3.32181 19.091 2.75577 19.4117 2.27688C20.1377 1.19699 21.5532 1.80069 22.3183 1.36353C22.8621 1.05387 23.3019 0.562072 23.6922 0.322675C23.9833 0.109283 24.3357 -0.00393757 24.6966 1.07805e-05ZM23.4398 6.38565L24.3688 7.28598L25.9717 5.65705C26.1304 5.49572 26.2319 5.36561 26.427 5.56858L27.062 6.21911C27.2701 6.42468 27.2597 6.54438 27.062 6.73954L24.72 9.02681C24.3037 9.43274 24.3766 9.45877 23.9576 9.04242L22.3781 7.43431C22.3565 7.41752 22.339 7.39602 22.327 7.37144C22.3149 7.34686 22.3087 7.31986 22.3087 7.29249C22.3087 7.26512 22.3149 7.23812 22.327 7.21354C22.339 7.18896 22.3565 7.16746 22.3781 7.15067L23.1145 6.38565C23.2238 6.26855 23.3123 6.27636 23.4294 6.38565H23.4398ZM24.6732 3.26309C25.4771 3.26257 26.2631 3.50045 26.9318 3.94664C27.6005 4.39283 28.1218 5.02729 28.4299 5.76979C28.7381 6.51228 28.8191 7.32947 28.6627 8.11802C28.5064 8.90656 28.1198 9.63104 27.5517 10.1998C26.9836 10.7686 26.2596 11.1562 25.4713 11.3135C24.683 11.4709 23.8657 11.3909 23.1228 11.0838C22.3799 10.7766 21.7448 10.256 21.2977 9.58791C20.8507 8.91979 20.6118 8.13411 20.6113 7.33022C20.6113 6.25269 21.0391 5.21925 21.8008 4.45708C22.5625 3.69491 23.5957 3.26638 24.6732 3.26569V3.26309Z" fill="#33A867"/>
</g>
<defs>
<clipPath id="clip0_738_19211">
<rect width="31.975" height="30" fill="white"/>
</clipPath>
</defs>
</svg>
