<svg width="20" height="20" viewBox="0 0 20 20" fill="#000" xmlns="http://www.w3.org/2000/svg">
<rect x="0.5" y="0.5" width="19" height="19" rx="3.5" fill="white" stroke="#747474"/>
<path d="M9.2295 6.94023V7.95723H7.5555V13.2222H6.2955V7.95723H4.6215V6.94023H9.2295ZM9.84283 10.0722C9.84283 9.45423 9.98083 8.90223 10.2568 8.41623C10.5388 7.92423 10.9198 7.54323 11.3998 7.27323C11.8858 6.99723 12.4288 6.85923 13.0288 6.85923C13.7308 6.85923 14.3458 7.03923 14.8738 7.39923C15.4018 7.75923 15.7708 8.25723 15.9808 8.89323H14.5318C14.3878 8.59323 14.1838 8.36823 13.9198 8.21823C13.6618 8.06823 13.3618 7.99323 13.0198 7.99323C12.6538 7.99323 12.3268 8.08023 12.0388 8.25423C11.7568 8.42223 11.5348 8.66223 11.3728 8.97423C11.2168 9.28623 11.1388 9.65223 11.1388 10.0722C11.1388 10.4862 11.2168 10.8522 11.3728 11.1702C11.5348 11.4822 11.7568 11.7252 12.0388 11.8992C12.3268 12.0672 12.6538 12.1512 13.0198 12.1512C13.3618 12.1512 13.6618 12.0762 13.9198 11.9262C14.1838 11.7702 14.3878 11.5422 14.5318 11.2422H15.9808C15.7708 11.8842 15.4018 12.3852 14.8738 12.7452C14.3518 13.0992 13.7368 13.2762 13.0288 13.2762C12.4288 13.2762 11.8858 13.1412 11.3998 12.8712C10.9198 12.5952 10.5388 12.2142 10.2568 11.7282C9.98083 11.2422 9.84283 10.6902 9.84283 10.0722Z" fill="#747474"/>
</svg>
