<svg width="20" height="20" viewBox="0 0 20 20" fill="none" xmlns="http://www.w3.org/2000/svg">
<rect width="20" height="20" rx="4" fill="#00C2C1"/>
<path d="M9.22937 6.94023V7.95723H7.55537V13.2222H6.29537V7.95723H4.62137V6.94023H9.22937ZM9.84271 10.0722C9.84271 9.45423 9.98071 8.90223 10.2567 8.41623C10.5387 7.92423 10.9197 7.54323 11.3997 7.27323C11.8857 6.99723 12.4287 6.85923 13.0287 6.85923C13.7307 6.85923 14.3457 7.03923 14.8737 7.39923C15.4017 7.75923 15.7707 8.25723 15.9807 8.89323H14.5317C14.3877 8.59323 14.1837 8.36823 13.9197 8.21823C13.6617 8.06823 13.3617 7.99323 13.0197 7.99323C12.6537 7.99323 12.3267 8.08023 12.0387 8.25423C11.7567 8.42223 11.5347 8.66223 11.3727 8.97423C11.2167 9.28623 11.1387 9.65223 11.1387 10.0722C11.1387 10.4862 11.2167 10.8522 11.3727 11.1702C11.5347 11.4822 11.7567 11.7252 12.0387 11.8992C12.3267 12.0672 12.6537 12.1512 13.0197 12.1512C13.3617 12.1512 13.6617 12.0762 13.9197 11.9262C14.1837 11.7702 14.3877 11.5422 14.5317 11.2422H15.9807C15.7707 11.8842 15.4017 12.3852 14.8737 12.7452C14.3517 13.0992 13.7367 13.2762 13.0287 13.2762C12.4287 13.2762 11.8857 13.1412 11.3997 12.8712C10.9197 12.5952 10.5387 12.2142 10.2567 11.7282C9.98071 11.2422 9.84271 10.6902 9.84271 10.0722Z" fill="white"/>
</svg>
