<svg width="190" height="70" viewBox="0 0 190 70" fill="none" xmlns="http://www.w3.org/2000/svg">
<g filter="url(#filter0_d_13_91)">
<path d="M76.792 18.436V20.47H73.444V31H70.924V20.47H67.576V18.436H76.792ZM78.1627 26.032C78.1627 25.024 78.3667 24.142 78.7747 23.386C79.1827 22.618 79.7407 22.024 80.4487 21.604C81.1687 21.184 81.9667 20.974 82.8427 20.974C83.7067 20.974 84.4567 21.16 85.0927 21.532C85.7287 21.904 86.2027 22.372 86.5147 22.936V21.136H88.1707V31H86.5147V29.164C86.1907 29.74 85.7047 30.22 85.0567 30.604C84.4207 30.976 83.6767 31.162 82.8247 31.162C81.9487 31.162 81.1567 30.946 80.4487 30.514C79.7407 30.082 79.1827 29.476 78.7747 28.696C78.3667 27.916 78.1627 27.028 78.1627 26.032ZM86.5147 26.05C86.5147 25.306 86.3647 24.658 86.0647 24.106C85.7647 23.554 85.3567 23.134 84.8407 22.846C84.3367 22.546 83.7787 22.396 83.1667 22.396C82.5547 22.396 81.9967 22.54 81.4927 22.828C80.9887 23.116 80.5867 23.536 80.2867 24.088C79.9867 24.64 79.8367 25.288 79.8367 26.032C79.8367 26.788 79.9867 27.448 80.2867 28.012C80.5867 28.564 80.9887 28.99 81.4927 29.29C81.9967 29.578 82.5547 29.722 83.1667 29.722C83.7787 29.722 84.3367 29.578 84.8407 29.29C85.3567 28.99 85.7647 28.564 86.0647 28.012C86.3647 27.448 86.5147 26.794 86.5147 26.05ZM92.9367 22.486V28.3C92.9367 28.78 93.0387 29.122 93.2427 29.326C93.4467 29.518 93.8007 29.614 94.3047 29.614H95.5107V31H94.0347C93.1227 31 92.4387 30.79 91.9827 30.37C91.5267 29.95 91.2987 29.26 91.2987 28.3V22.486H90.0207V21.136H91.2987V18.652H92.9367V21.136H95.5107V22.486H92.9367ZM103.003 31L99.1334 26.644V31H97.4954V17.68H99.1334V25.51L102.931 21.136H105.217L100.573 26.05L105.235 31H103.003ZM106.147 26.032C106.147 25.024 106.351 24.142 106.759 23.386C107.167 22.618 107.725 22.024 108.433 21.604C109.153 21.184 109.951 20.974 110.827 20.974C111.691 20.974 112.441 21.16 113.077 21.532C113.713 21.904 114.187 22.372 114.499 22.936V21.136H116.155V31H114.499V29.164C114.175 29.74 113.689 30.22 113.041 30.604C112.405 30.976 111.661 31.162 110.809 31.162C109.933 31.162 109.141 30.946 108.433 30.514C107.725 30.082 107.167 29.476 106.759 28.696C106.351 27.916 106.147 27.028 106.147 26.032ZM114.499 26.05C114.499 25.306 114.349 24.658 114.049 24.106C113.749 23.554 113.341 23.134 112.825 22.846C112.321 22.546 111.763 22.396 111.151 22.396C110.539 22.396 109.981 22.54 109.477 22.828C108.973 23.116 108.571 23.536 108.271 24.088C107.971 24.64 107.821 25.288 107.821 26.032C107.821 26.788 107.971 27.448 108.271 28.012C108.571 28.564 108.973 28.99 109.477 29.29C109.981 29.578 110.539 29.722 111.151 29.722C111.763 29.722 112.321 29.578 112.825 29.29C113.341 28.99 113.749 28.564 114.049 28.012C114.349 27.448 114.499 26.794 114.499 26.05ZM120.561 17.68V31H118.923V17.68H120.561ZM127.396 24.7C127.396 23.464 127.672 22.36 128.224 21.388C128.788 20.404 129.55 19.642 130.51 19.102C131.482 18.55 132.568 18.274 133.768 18.274C135.172 18.274 136.402 18.634 137.458 19.354C138.514 20.074 139.252 21.07 139.672 22.342H136.774C136.486 21.742 136.078 21.292 135.55 20.992C135.034 20.692 134.434 20.542 133.75 20.542C133.018 20.542 132.364 20.716 131.788 21.064C131.224 21.4 130.78 21.88 130.456 22.504C130.144 23.128 129.988 23.86 129.988 24.7C129.988 25.528 130.144 26.26 130.456 26.896C130.78 27.52 131.224 28.006 131.788 28.354C132.364 28.69 133.018 28.858 133.75 28.858C134.434 28.858 135.034 28.708 135.55 28.408C136.078 28.096 136.486 27.64 136.774 27.04H139.672C139.252 28.324 138.514 29.326 137.458 30.046C136.414 30.754 135.184 31.108 133.768 31.108C132.568 31.108 131.482 30.838 130.51 30.298C129.55 29.746 128.788 28.984 128.224 28.012C127.672 27.04 127.396 25.936 127.396 24.7ZM141.356 26.032C141.356 25.024 141.56 24.142 141.968 23.386C142.376 22.618 142.934 22.024 143.642 21.604C144.362 21.184 145.16 20.974 146.036 20.974C146.9 20.974 147.65 21.16 148.286 21.532C148.922 21.904 149.396 22.372 149.708 22.936V21.136H151.364V31H149.708V29.164C149.384 29.74 148.898 30.22 148.25 30.604C147.614 30.976 146.87 31.162 146.018 31.162C145.142 31.162 144.35 30.946 143.642 30.514C142.934 30.082 142.376 29.476 141.968 28.696C141.56 27.916 141.356 27.028 141.356 26.032ZM149.708 26.05C149.708 25.306 149.558 24.658 149.258 24.106C148.958 23.554 148.55 23.134 148.034 22.846C147.53 22.546 146.972 22.396 146.36 22.396C145.748 22.396 145.19 22.54 144.686 22.828C144.182 23.116 143.78 23.536 143.48 24.088C143.18 24.64 143.03 25.288 143.03 26.032C143.03 26.788 143.18 27.448 143.48 28.012C143.78 28.564 144.182 28.99 144.686 29.29C145.19 29.578 145.748 29.722 146.36 29.722C146.972 29.722 147.53 29.578 148.034 29.29C148.55 28.99 148.958 28.564 149.258 28.012C149.558 27.448 149.708 26.794 149.708 26.05ZM155.77 22.738C156.058 22.174 156.466 21.736 156.994 21.424C157.534 21.112 158.188 20.956 158.956 20.956V22.648H158.524C156.688 22.648 155.77 23.644 155.77 25.636V31H154.132V21.136H155.77V22.738ZM169.847 25.69C169.847 26.002 169.829 26.332 169.793 26.68H161.909C161.969 27.652 162.299 28.414 162.899 28.966C163.511 29.506 164.249 29.776 165.113 29.776C165.821 29.776 166.409 29.614 166.877 29.29C167.357 28.954 167.693 28.51 167.885 27.958H169.649C169.385 28.906 168.857 29.68 168.065 30.28C167.273 30.868 166.289 31.162 165.113 31.162C164.177 31.162 163.337 30.952 162.593 30.532C161.861 30.112 161.285 29.518 160.865 28.75C160.445 27.97 160.235 27.07 160.235 26.05C160.235 25.03 160.439 24.136 160.847 23.368C161.255 22.6 161.825 22.012 162.557 21.604C163.301 21.184 164.153 20.974 165.113 20.974C166.049 20.974 166.877 21.178 167.597 21.586C168.317 21.994 168.869 22.558 169.253 23.278C169.649 23.986 169.847 24.79 169.847 25.69ZM168.155 25.348C168.155 24.724 168.017 24.19 167.741 23.746C167.465 23.29 167.087 22.948 166.607 22.72C166.139 22.48 165.617 22.36 165.041 22.36C164.213 22.36 163.505 22.624 162.917 23.152C162.341 23.68 162.011 24.412 161.927 25.348H168.155ZM175.501 31.162C174.745 31.162 174.067 31.036 173.467 30.784C172.867 30.52 172.393 30.16 172.045 29.704C171.697 29.236 171.505 28.702 171.469 28.102H173.161C173.209 28.594 173.437 28.996 173.845 29.308C174.265 29.62 174.811 29.776 175.483 29.776C176.107 29.776 176.599 29.638 176.959 29.362C177.319 29.086 177.499 28.738 177.499 28.318C177.499 27.886 177.307 27.568 176.923 27.364C176.539 27.148 175.945 26.938 175.141 26.734C174.409 26.542 173.809 26.35 173.341 26.158C172.885 25.954 172.489 25.66 172.153 25.276C171.829 24.88 171.667 24.364 171.667 23.728C171.667 23.224 171.817 22.762 172.117 22.342C172.417 21.922 172.843 21.592 173.395 21.352C173.947 21.1 174.577 20.974 175.285 20.974C176.377 20.974 177.259 21.25 177.931 21.802C178.603 22.354 178.963 23.11 179.011 24.07H177.373C177.337 23.554 177.127 23.14 176.743 22.828C176.371 22.516 175.867 22.36 175.231 22.36C174.643 22.36 174.175 22.486 173.827 22.738C173.479 22.99 173.305 23.32 173.305 23.728C173.305 24.052 173.407 24.322 173.611 24.538C173.827 24.742 174.091 24.91 174.403 25.042C174.727 25.162 175.171 25.3 175.735 25.456C176.443 25.648 177.019 25.84 177.463 26.032C177.907 26.212 178.285 26.488 178.597 26.86C178.921 27.232 179.089 27.718 179.101 28.318C179.101 28.858 178.951 29.344 178.651 29.776C178.351 30.208 177.925 30.55 177.373 30.802C176.833 31.042 176.209 31.162 175.501 31.162Z" fill="white"/>
<path d="M84.596 36.0815V38.295H87.009V39.0075H84.596V41.2875H87.294V42H83.7315V35.369H87.294V36.0815H84.596ZM90.5401 41.202L92.1551 36.794H93.0766L91.0341 42H90.0271L87.9846 36.794H88.9156L90.5401 41.202ZM98.6773 39.1975C98.6773 39.3622 98.6678 39.5363 98.6488 39.72H94.4878C94.5195 40.233 94.6936 40.6352 95.0103 40.9265C95.3333 41.2115 95.7228 41.354 96.1788 41.354C96.5525 41.354 96.8628 41.2685 97.1098 41.0975C97.3631 40.9202 97.5405 40.6858 97.6418 40.3945H98.5728C98.4335 40.8948 98.1548 41.3033 97.7368 41.62C97.3188 41.9303 96.7995 42.0855 96.1788 42.0855C95.6848 42.0855 95.2415 41.9747 94.8488 41.753C94.4625 41.5313 94.1585 41.2178 93.9368 40.8125C93.7151 40.4008 93.6043 39.9258 93.6043 39.3875C93.6043 38.8492 93.712 38.3773 93.9273 37.972C94.1426 37.5667 94.4435 37.2563 94.8298 37.041C95.2225 36.8193 95.6721 36.7085 96.1788 36.7085C96.6728 36.7085 97.1098 36.8162 97.4898 37.0315C97.8698 37.2468 98.1611 37.5445 98.3638 37.9245C98.5728 38.2982 98.6773 38.7225 98.6773 39.1975ZM97.7843 39.017C97.7843 38.6877 97.7115 38.4058 97.5658 38.1715C97.4201 37.9308 97.2206 37.7503 96.9673 37.63C96.7203 37.5033 96.4448 37.44 96.1408 37.44C95.7038 37.44 95.3301 37.5793 95.0198 37.858C94.7158 38.1367 94.5416 38.523 94.4973 39.017H97.7843ZM100.683 37.6395C100.835 37.3418 101.05 37.1107 101.329 36.946C101.614 36.7813 101.959 36.699 102.364 36.699V37.592H102.136C101.167 37.592 100.683 38.1177 100.683 39.169V42H99.8184V36.794H100.683V37.6395ZM107.846 36.794L104.711 44.451H103.818L104.844 41.943L102.745 36.794H103.704L105.338 41.012L106.953 36.794H107.846ZM112.113 41.297H114.431V42H111.248V35.3785H112.113V41.297ZM115.795 35.9485C115.631 35.9485 115.491 35.8915 115.377 35.7775C115.263 35.6635 115.206 35.5242 115.206 35.3595C115.206 35.1948 115.263 35.0555 115.377 34.9415C115.491 34.8275 115.631 34.7705 115.795 34.7705C115.954 34.7705 116.087 34.8275 116.194 34.9415C116.308 35.0555 116.365 35.1948 116.365 35.3595C116.365 35.5242 116.308 35.6635 116.194 35.7775C116.087 35.8915 115.954 35.9485 115.795 35.9485ZM116.213 36.794V42H115.349V36.794H116.213ZM119.805 37.5065H118.713V42H117.848V37.5065H117.174V36.794H117.848V36.4235C117.848 35.8408 117.997 35.4165 118.295 35.1505C118.599 34.8782 119.083 34.742 119.748 34.742V35.464C119.368 35.464 119.099 35.54 118.941 35.692C118.789 35.8377 118.713 36.0815 118.713 36.4235V36.794H119.805V37.5065ZM125.563 39.1975C125.563 39.3622 125.554 39.5363 125.535 39.72H121.374C121.405 40.233 121.579 40.6352 121.896 40.9265C122.219 41.2115 122.609 41.354 123.065 41.354C123.438 41.354 123.749 41.2685 123.996 41.0975C124.249 40.9202 124.426 40.6858 124.528 40.3945H125.459C125.319 40.8948 125.041 41.3033 124.623 41.62C124.205 41.9303 123.685 42.0855 123.065 42.0855C122.571 42.0855 122.127 41.9747 121.735 41.753C121.348 41.5313 121.044 41.2178 120.823 40.8125C120.601 40.4008 120.49 39.9258 120.49 39.3875C120.49 38.8492 120.598 38.3773 120.813 37.972C121.028 37.5667 121.329 37.2563 121.716 37.041C122.108 36.8193 122.558 36.7085 123.065 36.7085C123.559 36.7085 123.996 36.8162 124.376 37.0315C124.756 37.2468 125.047 37.5445 125.25 37.9245C125.459 38.2982 125.563 38.7225 125.563 39.1975ZM124.67 39.017C124.67 38.6877 124.597 38.4058 124.452 38.1715C124.306 37.9308 124.106 37.7503 123.853 37.63C123.606 37.5033 123.331 37.44 123.027 37.44C122.59 37.44 122.216 37.5793 121.906 37.858C121.602 38.1367 121.427 38.523 121.383 39.017H124.67ZM135.953 35.426V42H135.089V37.098L132.904 42H132.296L130.101 37.0885V42H129.237V35.426H130.168L132.6 40.86L135.032 35.426H135.953ZM137.096 39.378C137.096 38.846 137.204 38.3805 137.419 37.9815C137.635 37.5762 137.929 37.2627 138.303 37.041C138.683 36.8193 139.104 36.7085 139.566 36.7085C140.022 36.7085 140.418 36.8067 140.754 37.003C141.09 37.1993 141.34 37.4463 141.504 37.744V36.794H142.378V42H141.504V41.031C141.333 41.335 141.077 41.5883 140.735 41.791C140.399 41.9873 140.007 42.0855 139.557 42.0855C139.095 42.0855 138.677 41.9715 138.303 41.7435C137.929 41.5155 137.635 41.1957 137.419 40.784C137.204 40.3723 137.096 39.9037 137.096 39.378ZM141.504 39.3875C141.504 38.9948 141.425 38.6528 141.267 38.3615C141.109 38.0702 140.893 37.8485 140.621 37.6965C140.355 37.5382 140.06 37.459 139.737 37.459C139.414 37.459 139.12 37.535 138.854 37.687C138.588 37.839 138.376 38.0607 138.217 38.352C138.059 38.6433 137.98 38.9853 137.98 39.378C137.98 39.777 138.059 40.1253 138.217 40.423C138.376 40.7143 138.588 40.9392 138.854 41.0975C139.12 41.2495 139.414 41.3255 139.737 41.3255C140.06 41.3255 140.355 41.2495 140.621 41.0975C140.893 40.9392 141.109 40.7143 141.267 40.423C141.425 40.1253 141.504 39.7802 141.504 39.3875ZM144.894 37.5065V40.575C144.894 40.8283 144.948 41.0088 145.055 41.1165C145.163 41.2178 145.35 41.2685 145.616 41.2685H146.252V42H145.473C144.992 42 144.631 41.8892 144.39 41.6675C144.15 41.4458 144.029 41.0817 144.029 40.575V37.5065H143.355V36.794H144.029V35.483H144.894V36.794H146.252V37.5065H144.894ZM148.354 37.5065V40.575C148.354 40.8283 148.408 41.0088 148.516 41.1165C148.624 41.2178 148.81 41.2685 149.076 41.2685H149.713V42H148.934C148.453 42 148.092 41.8892 147.851 41.6675C147.61 41.4458 147.49 41.0817 147.49 40.575V37.5065H146.815V36.794H147.49V35.483H148.354V36.794H149.713V37.5065H148.354ZM155.51 39.1975C155.51 39.3622 155.501 39.5363 155.482 39.72H151.321C151.352 40.233 151.527 40.6352 151.843 40.9265C152.166 41.2115 152.556 41.354 153.012 41.354C153.385 41.354 153.696 41.2685 153.943 41.0975C154.196 40.9202 154.373 40.6858 154.475 40.3945H155.406C155.266 40.8948 154.988 41.3033 154.57 41.62C154.152 41.9303 153.632 42.0855 153.012 42.0855C152.518 42.0855 152.074 41.9747 151.682 41.753C151.295 41.5313 150.991 41.2178 150.77 40.8125C150.548 40.4008 150.437 39.9258 150.437 39.3875C150.437 38.8492 150.545 38.3773 150.76 37.972C150.976 37.5667 151.276 37.2563 151.663 37.041C152.055 36.8193 152.505 36.7085 153.012 36.7085C153.506 36.7085 153.943 36.8162 154.323 37.0315C154.703 37.2468 154.994 37.5445 155.197 37.9245C155.406 38.2982 155.51 38.7225 155.51 39.1975ZM154.617 39.017C154.617 38.6877 154.544 38.4058 154.399 38.1715C154.253 37.9308 154.054 37.7503 153.8 37.63C153.553 37.5033 153.278 37.44 152.974 37.44C152.537 37.44 152.163 37.5793 151.853 37.858C151.549 38.1367 151.375 38.523 151.33 39.017H154.617ZM157.516 37.6395C157.668 37.3418 157.883 37.1107 158.162 36.946C158.447 36.7813 158.792 36.699 159.197 36.699V37.592H158.969C158 37.592 157.516 38.1177 157.516 39.169V42H156.651V36.794H157.516V37.6395ZM162.038 42.0855C161.639 42.0855 161.282 42.019 160.965 41.886C160.648 41.7467 160.398 41.5567 160.214 41.316C160.031 41.069 159.929 40.7872 159.91 40.4705H160.803C160.829 40.7302 160.949 40.9423 161.164 41.107C161.386 41.2717 161.674 41.354 162.029 41.354C162.358 41.354 162.618 41.2812 162.808 41.1355C162.998 40.9898 163.093 40.8062 163.093 40.5845C163.093 40.3565 162.992 40.1887 162.789 40.081C162.586 39.967 162.273 39.8562 161.848 39.7485C161.462 39.6472 161.145 39.5458 160.898 39.4445C160.658 39.3368 160.449 39.1817 160.271 38.979C160.1 38.77 160.015 38.4977 160.015 38.162C160.015 37.896 160.094 37.6522 160.252 37.4305C160.411 37.2088 160.636 37.0347 160.927 36.908C161.218 36.775 161.551 36.7085 161.924 36.7085C162.501 36.7085 162.966 36.8542 163.321 37.1455C163.676 37.4368 163.866 37.8358 163.891 38.3425H163.026C163.007 38.0702 162.897 37.8517 162.694 37.687C162.498 37.5223 162.232 37.44 161.896 37.44C161.586 37.44 161.339 37.5065 161.155 37.6395C160.971 37.7725 160.879 37.9467 160.879 38.162C160.879 38.333 160.933 38.4755 161.041 38.5895C161.155 38.6972 161.294 38.7858 161.459 38.8555C161.63 38.9188 161.864 38.9917 162.162 39.074C162.536 39.1753 162.84 39.2767 163.074 39.378C163.308 39.473 163.508 39.6187 163.672 39.815C163.843 40.0113 163.932 40.2678 163.938 40.5845C163.938 40.8695 163.859 41.126 163.701 41.354C163.543 41.582 163.318 41.7625 163.026 41.8955C162.741 42.0222 162.412 42.0855 162.038 42.0855Z" fill="white"/>
<rect x="10" y="4" width="51" height="50" rx="6" fill="white"/>
<path d="M31.864 19.362V22.865H26.098V41H21.758V22.865H15.992V19.362H31.864ZM33.9766 30.15C33.9766 28.0213 34.4519 26.12 35.4026 24.446C36.3739 22.7513 37.6863 21.439 39.3396 20.509C41.0136 19.5583 42.8839 19.083 44.9506 19.083C47.3686 19.083 49.4869 19.703 51.3056 20.943C53.1243 22.183 54.3953 23.8983 55.1186 26.089H50.1276C49.6316 25.0557 48.9289 24.2807 48.0196 23.764C47.1309 23.2473 46.0976 22.989 44.9196 22.989C43.6589 22.989 42.5326 23.2887 41.5406 23.888C40.5693 24.4667 39.8046 25.2933 39.2466 26.368C38.7093 27.4427 38.4406 28.7033 38.4406 30.15C38.4406 31.576 38.7093 32.8367 39.2466 33.932C39.8046 35.0067 40.5693 35.8437 41.5406 36.443C42.5326 37.0217 43.6589 37.311 44.9196 37.311C46.0976 37.311 47.1309 37.0527 48.0196 36.536C48.9289 35.9987 49.6316 35.2133 50.1276 34.18H55.1186C54.3953 36.3913 53.1243 38.117 51.3056 39.357C49.5076 40.5763 47.3893 41.186 44.9506 41.186C42.8839 41.186 41.0136 40.721 39.3396 39.791C37.6863 38.8403 36.3739 37.528 35.4026 35.854C34.4519 34.18 33.9766 32.2787 33.9766 30.15Z" fill="#00C2C1"/>
</g>
<defs>
<filter id="filter0_d_13_91" x="0" y="0" width="189.101" height="70" filterUnits="userSpaceOnUse" color-interpolation-filters="sRGB">
<feFlood flood-opacity="0" result="BackgroundImageFix"/>
<feColorMatrix in="SourceAlpha" type="matrix" values="0 0 0 0 0 0 0 0 0 0 0 0 0 0 0 0 0 0 127 0" result="hardAlpha"/>
<feOffset dy="6"/>
<feGaussianBlur stdDeviation="5"/>
<feComposite in2="hardAlpha" operator="out"/>
<feColorMatrix type="matrix" values="0 0 0 0 0 0 0 0 0 0.760784 0 0 0 0 0.756863 0 0 0 0.5 0"/>
<feBlend mode="normal" in2="BackgroundImageFix" result="effect1_dropShadow_13_91"/>
<feBlend mode="normal" in="SourceGraphic" in2="effect1_dropShadow_13_91" result="shape"/>
</filter>
</defs>
</svg>
