<svg width="15" height="15" viewBox="0 0 15 15" fill="none" xmlns="http://www.w3.org/2000/svg">
<path d="M6.87529 3.45863C6.87529 3.95947 6.87816 4.46031 6.87482 4.96162C6.86766 6.05869 6.05774 6.87005 4.96067 6.87434C3.94564 6.87816 2.93109 6.87863 1.91606 6.87434C0.819464 6.87005 0.00715481 6.05678 0.00286192 4.96019C-0.000953974 3.94516 -0.000953974 2.93061 0.00286192 1.91558C0.00715481 0.818987 0.819941 0.00715481 1.91701 0.00286192C2.93204 -0.000953974 3.94659 -0.000953974 4.96162 0.00286192C6.05821 0.00715481 6.86814 0.818987 6.87482 1.91653C6.87816 2.43025 6.87529 2.94444 6.87529 3.45816V3.45863ZM3.43717 5.62559C3.93801 5.62559 4.43932 5.62702 4.94016 5.62559C5.36801 5.62416 5.62416 5.37278 5.62463 4.94874C5.62654 3.94659 5.62606 2.94444 5.62463 1.94229C5.62416 1.50537 5.3704 1.25305 4.93253 1.25257C3.93705 1.25161 2.9411 1.25161 1.94563 1.25257C1.50346 1.25305 1.25209 1.50108 1.25161 1.93895C1.25018 2.9411 1.25018 3.94325 1.25161 4.9454C1.25209 5.36945 1.50823 5.62416 1.93323 5.62559C2.43407 5.6275 2.93538 5.62559 3.43622 5.62559H3.43717Z" fill="#747474"/>
<path d="M3.4497 8.12499C3.95054 8.12499 4.45138 8.12308 4.95269 8.12499C6.06168 8.13024 6.87065 8.93873 6.87447 10.0496C6.87781 11.058 6.87829 12.0663 6.87447 13.0747C6.87065 14.1837 6.05978 14.9931 4.9503 14.9969C3.94195 15.0003 2.9336 15.0003 1.92525 14.9969C0.81721 14.9931 0.00680836 14.1813 0.00299246 13.0723C-0.000346446 12.064 -0.000346446 11.0556 0.00299246 10.0473C0.00680836 8.93873 0.818164 8.13024 1.92764 8.12499C2.43515 8.12261 2.94266 8.12499 3.45018 8.12499H3.4497ZM3.43587 13.7482C3.93051 13.7482 4.42514 13.7491 4.91978 13.7482C5.37435 13.7472 5.62476 13.5011 5.62524 13.0527C5.62667 12.0573 5.62667 11.0613 5.62524 10.0659C5.62476 9.62846 5.37148 9.37565 4.93456 9.37518C3.93909 9.37422 2.94314 9.37422 1.94767 9.37518C1.50503 9.37518 1.25318 9.62321 1.25222 10.0601C1.25079 11.0623 1.25079 12.0644 1.25222 13.0666C1.2527 13.4906 1.50884 13.7463 1.93241 13.7482C2.43324 13.7501 2.93456 13.7482 3.43539 13.7487L3.43587 13.7482Z" fill="#747474"/>
<path d="M14.9979 11.5598C14.9979 12.0673 15.0002 12.5748 14.9974 13.0823C14.9907 14.1803 14.1813 14.9926 13.0851 14.9969C12.0701 15.0012 11.0556 15.0008 10.0405 14.9969C8.94346 14.9926 8.1302 14.1803 8.12591 13.0847C8.12209 12.0697 8.12209 11.0551 8.12591 10.0401C8.1302 8.94302 8.94203 8.13023 10.0382 8.12594C11.0532 8.12212 12.0677 8.12212 13.0828 8.12594C14.1803 8.13023 14.9902 8.94063 14.9974 10.0377C15.0007 10.5452 14.9979 11.0527 14.9979 11.5602V11.5598ZM11.5574 9.37421C11.0565 9.37421 10.5552 9.37278 10.0544 9.37421C9.62794 9.37565 9.37609 9.62797 9.37514 10.0558C9.37371 11.058 9.37371 12.0601 9.37514 13.0623C9.37562 13.4878 9.63033 13.7463 10.052 13.7468C11.0541 13.7487 12.0563 13.7482 13.0584 13.7468C13.4968 13.7463 13.7472 13.4944 13.7477 13.0546C13.7491 12.0592 13.7491 11.0632 13.7477 10.0678C13.7472 9.62797 13.4958 9.37517 13.0603 9.37374C12.5595 9.37231 12.0582 9.37374 11.5574 9.37374V9.37421Z" fill="#747474"/>
<path d="M11.5579 6.8753C11.0571 6.8753 10.5562 6.8772 10.0554 6.8753C8.93592 6.87053 8.12838 6.06108 8.126 4.93825C8.12361 3.93658 8.12313 2.93443 8.126 1.93275C8.12886 0.811835 8.9383 0.00620346 10.0616 0.00238757C10.6469 0.000479617 11.2326 0.000956605 11.8179 0.00238757C12.2147 0.00334154 12.4966 0.263777 12.4976 0.625333C12.4985 0.986889 12.2171 1.24971 11.8207 1.25114C11.2355 1.25305 10.6497 1.25066 10.0645 1.25209C9.62517 1.25305 9.37522 1.50251 9.37475 1.94229C9.37332 2.94397 9.37332 3.94612 9.37475 4.94779C9.3757 5.36993 9.6328 5.62464 10.0587 5.62511C11.0604 5.62654 12.0626 5.62654 13.0642 5.62511C13.4916 5.62464 13.7459 5.37183 13.7473 4.94684C13.7497 4.36157 13.7473 3.77583 13.7482 3.19057C13.7492 2.78036 14.0111 2.49751 14.3812 2.50228C14.7413 2.50705 14.996 2.78847 14.997 3.18914C14.9984 3.78108 15.0003 4.37302 14.997 4.96496C14.9898 6.06108 14.1785 6.86862 13.0795 6.87482C12.572 6.87768 12.0645 6.87482 11.5574 6.8753H11.5579Z" fill="#747474"/>
</svg>
