<svg width="15" height="15" viewBox="0 0 15 15" fill="none" xmlns="http://www.w3.org/2000/svg">
<path d="M6.87529 3.45863C6.87529 3.95947 6.87816 4.46031 6.87482 4.96162C6.86766 6.05869 6.05774 6.87005 4.96067 6.87434C3.94564 6.87816 2.93109 6.87863 1.91606 6.87434C0.819464 6.87005 0.00715481 6.05678 0.00286192 4.96019C-0.000953974 3.94516 -0.000953974 2.93061 0.00286192 1.91558C0.00715481 0.818987 0.819941 0.00715481 1.91701 0.00286192C2.93204 -0.000953974 3.94659 -0.000953974 4.96162 0.00286192C6.05821 0.00715481 6.86814 0.818987 6.87482 1.91653C6.87816 2.43025 6.87529 2.94444 6.87529 3.45816V3.45863ZM3.43717 5.62559C3.93801 5.62559 4.43932 5.62702 4.94016 5.62559C5.36801 5.62416 5.62416 5.37278 5.62463 4.94874C5.62654 3.94659 5.62606 2.94444 5.62463 1.94229C5.62416 1.50537 5.3704 1.25305 4.93253 1.25257C3.93705 1.25161 2.9411 1.25161 1.94563 1.25257C1.50346 1.25305 1.25209 1.50108 1.25161 1.93895C1.25018 2.9411 1.25018 3.94325 1.25161 4.9454C1.25209 5.36945 1.50823 5.62416 1.93323 5.62559C2.43407 5.6275 2.93538 5.62559 3.43622 5.62559H3.43717Z" fill="#00C2C1"/>
<path d="M3.44958 8.12499C3.95042 8.12499 4.45125 8.12308 4.95257 8.12499C6.06156 8.13024 6.87053 8.93873 6.87435 10.0496C6.87769 11.058 6.87816 12.0663 6.87435 13.0747C6.87053 14.1837 6.05965 14.9931 4.95018 14.9969C3.94183 15.0003 2.93348 15.0003 1.92513 14.9969C0.817088 14.9931 0.00668629 14.1813 0.00287039 13.0723C-0.000468517 12.064 -0.000468517 11.0556 0.00287039 10.0473C0.00668629 8.93873 0.818042 8.13024 1.92751 8.12499C2.43503 8.12261 2.94254 8.12499 3.45006 8.12499H3.44958ZM3.43575 13.7482C3.93038 13.7482 4.42502 13.7491 4.91965 13.7482C5.37422 13.7472 5.62464 13.5011 5.62512 13.0527C5.62655 12.0573 5.62655 11.0613 5.62512 10.0659C5.62464 9.62846 5.37136 9.37565 4.93444 9.37518C3.93897 9.37422 2.94302 9.37422 1.94755 9.37518C1.5049 9.37518 1.25305 9.62321 1.2521 10.0601C1.25067 11.0623 1.25067 12.0644 1.2521 13.0666C1.25258 13.4906 1.50872 13.7463 1.93228 13.7482C2.43312 13.7501 2.93443 13.7482 3.43527 13.7487L3.43575 13.7482Z" fill="#00C2C1"/>
<path d="M14.9979 11.5598C14.9979 12.0673 15.0002 12.5748 14.9974 13.0823C14.9907 14.1803 14.1813 14.9927 13.0851 14.9969C12.0701 15.0012 11.0556 15.0008 10.0405 14.9969C8.94346 14.9927 8.1302 14.1803 8.12591 13.0847C8.12209 12.0697 8.12209 11.0551 8.12591 10.0401C8.1302 8.94303 8.94203 8.13024 10.0382 8.12595C11.0532 8.12213 12.0677 8.12213 13.0828 8.12595C14.1803 8.13024 14.9902 8.94064 14.9974 10.0377C15.0007 10.5452 14.9979 11.0527 14.9979 11.5603V11.5598ZM11.5574 9.37422C11.0565 9.37422 10.5552 9.37279 10.0544 9.37422C9.62794 9.37565 9.37609 9.62798 9.37514 10.0558C9.37371 11.058 9.37371 12.0601 9.37514 13.0623C9.37562 13.4878 9.63033 13.7463 10.052 13.7468C11.0541 13.7487 12.0563 13.7482 13.0584 13.7468C13.4968 13.7463 13.7472 13.4944 13.7477 13.0547C13.7491 12.0592 13.7491 11.0632 13.7477 10.0678C13.7472 9.62798 13.4958 9.37518 13.0603 9.37375C12.5595 9.37231 12.0582 9.37375 11.5574 9.37375V9.37422Z" fill="#00C2C1"/>
<path d="M11.5579 6.87529C11.0571 6.87529 10.5562 6.8772 10.0554 6.87529C8.93592 6.87052 8.12838 6.06107 8.126 4.93824C8.12361 3.93657 8.12313 2.93442 8.126 1.93275C8.12886 0.811827 8.9383 0.00619583 10.0616 0.00237994C10.6469 0.000471988 11.2326 0.000948975 11.8179 0.00237994C12.2147 0.00333391 12.4966 0.263769 12.4976 0.625325C12.4985 0.986882 12.2171 1.2497 11.8207 1.25113C11.2355 1.25304 10.6497 1.25066 10.0645 1.25209C9.62517 1.25304 9.37522 1.5025 9.37475 1.94229C9.37332 2.94396 9.37332 3.94611 9.37475 4.94778C9.3757 5.36992 9.6328 5.62463 10.0587 5.62511C11.0604 5.62654 12.0626 5.62654 13.0642 5.62511C13.4916 5.62463 13.7459 5.37183 13.7473 4.94683C13.7497 4.36157 13.7473 3.77583 13.7482 3.19056C13.7492 2.78035 14.0111 2.4975 14.3812 2.50227C14.7413 2.50704 14.996 2.78846 14.997 3.18913C14.9984 3.78107 15.0003 4.37301 14.997 4.96495C14.9898 6.06107 14.1785 6.86861 13.0795 6.87481C12.572 6.87767 12.0645 6.87481 11.5574 6.87529H11.5579Z" fill="#00C2C1"/>
</svg>
