<svg width="24" height="26" viewBox="0 0 24 26" fill="none" xmlns="http://www.w3.org/2000/svg">
<path d="M22.3333 25V23.6667C22.3333 22.1939 21.1395 21 19.6667 21H14.3333C12.8605 21 11.6667 22.1939 11.6667 23.6667V25M7.66667 11.6667H1M15.6667 3.66667H19.6667C21.1395 3.66667 22.3333 4.86057 22.3333 6.33333V9M3.66667 3.66667C2.19391 3.66667 1 4.86057 1 6.33333V22.3333C1 23.8061 2.19391 25 3.66667 25H7.66667M15.6667 1V6.33333M7.66667 1V6.33333M7.66667 3.66667H11.6667M19.6667 14.3333C19.6667 15.8061 18.4728 17 17 17C15.5272 17 14.3333 15.8061 14.3333 14.3333C14.3333 12.8605 15.5272 11.6667 17 11.6667C18.4728 11.6667 19.6667 12.8605 19.6667 14.3333Z" stroke="#00C2C1" stroke-width="1.5" stroke-linecap="round"/>
</svg>
