<svg width="9" height="11" viewBox="0 0 9 11" fill="none" xmlns="http://www.w3.org/2000/svg">
<path d="M6.93164 0H3.13769C2.95312 0 2.85059 0.102539 2.83008 0.123047L0.123047 2.83008C0.102539 2.85059 0 2.95312 0 3.11719V9.35156C0 9.9873 0.512695 10.5 1.14844 10.5H6.91113C7.54687 10.5 8.05957 9.9873 8.05957 9.35156V1.14844C8.08008 0.512695 7.56738 0 6.93164 0ZM2.70703 1.45605V2.37891C2.70703 2.54297 2.58398 2.66602 2.41992 2.66602H1.47656L2.70703 1.45605ZM7.21875 9.37207C7.21875 9.53613 7.07519 9.65918 6.93164 9.65918H1.14844C0.984375 9.65918 0.861328 9.51562 0.861328 9.37207V3.56836H2.41992C3.05566 3.56836 3.56836 3.05566 3.56836 2.41992V0.861328H6.91113C7.07519 0.861328 7.19824 0.984375 7.19824 1.14844L7.21875 9.37207ZM6.0293 5.25H2.17383C1.92773 5.25 1.74316 5.06543 1.74316 4.81934C1.74316 4.57324 1.92773 4.38867 2.17383 4.38867H6.0293C6.27539 4.38867 6.45996 4.57324 6.45996 4.81934C6.45996 5.06543 6.27539 5.25 6.0293 5.25ZM6.0293 6.99316H2.17383C1.92773 6.99316 1.74316 6.80859 1.74316 6.5625C1.74316 6.31641 1.92773 6.13184 2.17383 6.13184H6.0293C6.27539 6.13184 6.45996 6.31641 6.45996 6.5625C6.45996 6.80859 6.27539 6.99316 6.0293 6.99316ZM6.0293 8.73633H2.17383C1.92773 8.73633 1.74316 8.55176 1.74316 8.30566C1.74316 8.05957 1.92773 7.875 2.17383 7.875H6.0293C6.27539 7.875 6.45996 8.05957 6.45996 8.30566C6.45996 8.55176 6.27539 8.73633 6.0293 8.73633Z" fill="#00C2C1"/>
</svg>
