<svg width="18" height="24" viewBox="0 0 18 24" fill="none" xmlns="http://www.w3.org/2000/svg">
<path d="M17.0155 4.3739H10.4522C10.1871 4.3739 9.95642 4.60462 9.95642 4.86971V7.96237C9.95642 8.32563 10.3393 8.57108 10.6633 8.39926L17.2266 5.31152C17.7028 5.07589 17.531 4.3739 17.0155 4.3739Z" fill="#00C2C1"/>
<path d="M7.55594 7.95745V4.86479C7.55594 4.59971 7.32521 4.36899 7.06013 4.36899H0.496823C-0.0382554 4.36899 -0.190434 5.09552 0.285737 5.30169L6.84904 8.40908C7.17304 8.57107 7.55594 8.32072 7.55594 7.95745Z" fill="#00C2C1"/>
<path d="M10.0154 9.17979C9.75029 9.14052 9.51957 9.33197 9.4803 9.59705C9.44102 9.86214 9.63247 10.0929 9.89756 10.1321C11.4832 10.3432 12.2048 10.9127 12.2048 11.217C12.2048 11.6343 11.0414 12.2675 9.24957 12.3804V3.39701C9.9761 3.18593 10.5063 2.51831 10.5063 1.73778C10.4866 0.785437 9.70611 0 8.75377 0C7.80142 0 7.01599 0.780528 7.01599 1.73778C7.01599 2.53794 7.55107 3.20556 8.27269 3.39701V12.3804C6.48091 12.2872 5.31748 11.6539 5.31748 11.217C5.31748 10.893 6.04401 10.3383 7.6247 10.1321C7.88979 10.0929 8.0616 9.86705 8.04196 9.59705C8.00269 9.33197 7.77688 9.16016 7.50689 9.17979C5.58257 9.44488 4.36023 10.2303 4.36023 11.2219C4.36023 12.0221 5.14076 12.6161 6.21091 12.9744C5.52366 13.3573 5.10639 13.8924 5.10639 14.5208C5.10639 15.3209 5.79365 15.9885 6.87854 16.3518C6.44164 16.7347 6.17164 17.2502 6.17164 17.8C6.17164 18.4676 6.55454 19.0567 7.12399 19.4396C6.53491 19.8225 6.17164 20.4312 6.17164 21.0792C6.17164 21.8057 6.60854 22.4733 7.33507 22.8513C7.56579 22.9838 7.85051 22.8906 7.98306 22.6598C8.1156 22.4291 8.02233 22.1444 7.79161 22.0119C7.37434 21.7811 7.12399 21.4375 7.12399 21.0792C7.12399 20.5637 7.61979 20.1072 8.28741 19.955V23.5238C8.28741 23.7889 8.4985 24 8.76358 24C9.02867 24 9.23975 23.7889 9.23975 23.5238V19.955C9.90738 20.1072 10.4032 20.5441 10.4032 21.0792C10.4032 21.4424 10.1528 21.7861 9.73556 22.0119C9.50484 22.1444 9.41157 22.4291 9.54411 22.6598C9.63738 22.812 9.85829 23.0133 10.1921 22.8513C10.9186 22.4488 11.3555 21.8008 11.3555 21.0792C11.3555 20.4115 10.9726 19.8225 10.4032 19.4396C10.9923 19.0567 11.3555 18.4479 11.3555 17.8C11.3555 17.2256 11.0904 16.7298 10.6486 16.3518C11.7188 15.9885 12.4208 15.3209 12.4208 14.5208C12.4208 13.8924 12.0035 13.3573 11.3163 12.9744C12.3864 12.6308 13.1669 12.0417 13.1669 11.2219C13.162 10.2303 11.9593 9.44488 10.0154 9.17979ZM8.2776 18.9438C7.60997 18.7916 7.11417 18.3547 7.11417 17.8196C7.11417 17.3042 7.60997 16.8476 8.2776 16.6954V18.9438ZM8.2776 15.6646C6.98162 15.5713 6.06365 15.0166 6.06365 14.5208C6.06365 14.025 6.98162 13.4899 8.2776 13.377V15.6646ZM9.23485 18.9634V16.7151C9.90247 16.8673 10.3983 17.3042 10.3983 17.8392C10.3983 18.3547 9.90247 18.8112 9.23485 18.9634ZM11.4439 14.5208C11.4439 15.0166 10.5259 15.5713 9.22994 15.6646V13.377C10.5308 13.4899 11.4439 14.025 11.4439 14.5208Z" fill="#00C2C1"/>
</svg>
