<svg width="22" height="22" viewBox="0 0 22 22" fill="none" xmlns="http://www.w3.org/2000/svg">
<path fill-rule="evenodd" clip-rule="evenodd" d="M12.1 7.7C12.1 7.09249 11.6075 6.6 11 6.6C10.3925 6.6 9.9 7.09249 9.9 7.7V9.9H7.7C7.09249 9.9 6.6 10.3925 6.6 11C6.6 11.6075 7.09249 12.1 7.7 12.1H9.9V14.3C9.9 14.9075 10.3925 15.4 11 15.4C11.6075 15.4 12.1 14.9075 12.1 14.3V12.1H14.3C14.9075 12.1 15.4 11.6075 15.4 11C15.4 10.3925 14.9075 9.9 14.3 9.9H12.1V7.7ZM5.77508 0.426602C7.20366 0.10912 8.93673 0 11 0C13.0633 0 14.7963 0.10912 16.2249 0.426602C17.666 0.746867 18.8637 1.2936 19.785 2.21494C20.7064 3.13628 21.2531 4.33402 21.5734 5.77508C21.8909 7.20366 22 8.93673 22 11C22 13.0633 21.8909 14.7963 21.5734 16.2249C21.2531 17.666 20.7064 18.8637 19.785 19.785C18.8637 20.7064 17.666 21.2531 16.2249 21.5734C14.7963 21.8909 13.0633 22 11 22C8.93673 22 7.20366 21.8909 5.77508 21.5734C4.33402 21.2531 3.13628 20.7064 2.21494 19.785C1.2936 18.8637 0.746867 17.666 0.426602 16.2249C0.10912 14.7963 0 13.0633 0 11C0 8.93673 0.10912 7.20366 0.426602 5.77508C0.746867 4.33402 1.2936 3.13628 2.21494 2.21494C3.13628 1.2936 4.33402 0.746867 5.77508 0.426602Z" fill="#00C2C1"/>
</svg>
