<svg width="10" height="17" viewBox="0 0 10 17" fill="none" xmlns="http://www.w3.org/2000/svg">
<path d="M8.08863 16H1.67233C1.49402 16 1.32301 15.9292 1.19692 15.8031C1.07084 15.677 1 15.506 1 15.3277V7.59128C0.999805 7.5454 1.00896 7.49996 1.0269 7.45773C1.04485 7.4155 1.07121 7.37738 1.10438 7.34568L4.51208 4.14674C4.57406 4.09108 4.65442 4.06029 4.73773 4.06029C4.82103 4.06029 4.90139 4.09108 4.96337 4.14674L8.64737 7.35182C8.68268 7.38365 8.711 7.42245 8.73055 7.46578C8.7501 7.50911 8.76045 7.55602 8.76096 7.60356V15.3277C8.76096 15.506 8.69012 15.677 8.56404 15.8031C8.43795 15.9292 8.26694 16 8.08863 16Z" stroke="#00C2C1" stroke-linecap="round"/>
<path d="M4.88034 6.526C3.61243 6.526 2.58398 5.28265 2.58398 3.763C2.58398 2.24335 3.61243 1 4.88034 1C6.14825 1 7.1767 2.24335 7.1767 3.763" stroke="#00C2C1" stroke-linecap="round"/>
<path d="M3.14893 8.38948H3.95941C4.76374 8.38948 5.65097 8.65657 5.65097 9.8815C5.65097 11.2077 4.52429 11.7235 3.33006 11.5792C3.31554 11.5775 3.30086 11.5804 3.28805 11.5874C3.27524 11.5945 3.26492 11.6053 3.25852 11.6184C3.25212 11.6316 3.24996 11.6464 3.25232 11.6608C3.25469 11.6752 3.26147 11.6885 3.27173 11.6989L5.81368 14.4282" stroke="#00C2C1" stroke-linecap="round"/>
<path d="M6.63335 8.38948H3.79053" stroke="#00C2C1" stroke-linecap="round"/>
<path d="M3.18896 9.9214H6.65192" stroke="#00C2C1" stroke-linecap="round"/>
</svg>
