<svg width="220" height="220" viewBox="0 0 220 220" fill="none" xmlns="http://www.w3.org/2000/svg">
<g clip-path="url(#clip0_1065_11106)">
<path d="M220 0H0V220H220V0Z" fill="white"/>
<path d="M83.2757 15.1724H75.6895V22.7586H83.2757V15.1724Z" fill="black"/>
<path d="M106.034 15.1724H98.4482V22.7586H106.034V15.1724Z" fill="black"/>
<path d="M113.62 15.1724H106.034V22.7586H113.62V15.1724Z" fill="black"/>
<path d="M121.207 15.1724H113.621V22.7586H121.207V15.1724Z" fill="black"/>
<path d="M128.793 15.1724H121.207V22.7586H128.793V15.1724Z" fill="black"/>
<path d="M83.2757 22.7586H75.6895V30.3448H83.2757V22.7586Z" fill="black"/>
<path d="M98.4485 22.7586H90.8623V30.3448H98.4485V22.7586Z" fill="black"/>
<path d="M121.207 22.7586H113.621V30.3448H121.207V22.7586Z" fill="black"/>
<path d="M83.2757 30.3448H75.6895V37.931H83.2757V30.3448Z" fill="black"/>
<path d="M98.4485 30.3448H90.8623V37.931H98.4485V30.3448Z" fill="black"/>
<path d="M121.207 30.3448H113.621V37.931H121.207V30.3448Z" fill="black"/>
<path d="M128.793 30.3448H121.207V37.931H128.793V30.3448Z" fill="black"/>
<path d="M143.965 30.3448H136.379V37.931H143.965V30.3448Z" fill="black"/>
<path d="M90.8616 37.931H83.2754V45.5172H90.8616V37.931Z" fill="black"/>
<path d="M98.4485 37.931H90.8623V45.5172H98.4485V37.931Z" fill="black"/>
<path d="M121.207 37.931H113.621V45.5172H121.207V37.931Z" fill="black"/>
<path d="M83.2757 45.5172H75.6895V53.1034H83.2757V45.5172Z" fill="black"/>
<path d="M143.965 45.5172H136.379V53.1034H143.965V45.5172Z" fill="black"/>
<path d="M90.8616 53.1034H83.2754V60.6896H90.8616V53.1034Z" fill="black"/>
<path d="M113.62 53.1034H106.034V60.6896H113.62V53.1034Z" fill="black"/>
<path d="M121.207 53.1034H113.621V60.6896H121.207V53.1034Z" fill="black"/>
<path d="M83.2757 60.6897H75.6895V68.2759H83.2757V60.6897Z" fill="black"/>
<path d="M98.4485 60.6897H90.8623V68.2759H98.4485V60.6897Z" fill="black"/>
<path d="M113.62 60.6897H106.034V68.2759H113.62V60.6897Z" fill="black"/>
<path d="M128.793 60.6897H121.207V68.2759H128.793V60.6897Z" fill="black"/>
<path d="M143.965 60.6897H136.379V68.2759H143.965V60.6897Z" fill="black"/>
<path d="M106.034 68.2759H98.4482V75.8621H106.034V68.2759Z" fill="black"/>
<path d="M113.62 68.2759H106.034V75.8621H113.62V68.2759Z" fill="black"/>
<path d="M121.207 68.2759H113.621V75.8621H121.207V68.2759Z" fill="black"/>
<path d="M22.5862 75.8621H15V83.4483H22.5862V75.8621Z" fill="black"/>
<path d="M45.345 75.8621H37.7588V83.4483H45.345V75.8621Z" fill="black"/>
<path d="M52.9309 75.8621H45.3447V83.4483H52.9309V75.8621Z" fill="black"/>
<path d="M60.5169 75.8621H52.9307V83.4483H60.5169V75.8621Z" fill="black"/>
<path d="M68.1038 75.8621H60.5176V83.4483H68.1038V75.8621Z" fill="black"/>
<path d="M75.6897 75.8621H68.1035V83.4483H75.6897V75.8621Z" fill="black"/>
<path d="M83.2757 75.8621H75.6895V83.4483H83.2757V75.8621Z" fill="black"/>
<path d="M90.8616 75.8621H83.2754V83.4483H90.8616V75.8621Z" fill="black"/>
<path d="M98.4485 75.8621H90.8623V83.4483H98.4485V75.8621Z" fill="black"/>
<path d="M136.379 75.8621H128.793V83.4483H136.379V75.8621Z" fill="black"/>
<path d="M143.965 75.8621H136.379V83.4483H143.965V75.8621Z" fill="black"/>
<path d="M151.552 75.8621H143.966V83.4483H151.552V75.8621Z" fill="black"/>
<path d="M174.311 75.8621H166.725V83.4483H174.311V75.8621Z" fill="black"/>
<path d="M189.483 75.8621H181.896V83.4483H189.483V75.8621Z" fill="black"/>
<path d="M197.069 75.8621H189.482V83.4483H197.069V75.8621Z" fill="black"/>
<path d="M204.656 75.8621H197.069V83.4483H204.656V75.8621Z" fill="black"/>
<path d="M30.1721 83.4483H22.5859V91.0345H30.1721V83.4483Z" fill="black"/>
<path d="M52.9309 83.4483H45.3447V91.0345H52.9309V83.4483Z" fill="black"/>
<path d="M60.5169 83.4483H52.9307V91.0345H60.5169V83.4483Z" fill="black"/>
<path d="M83.2757 83.4483H75.6895V91.0345H83.2757V83.4483Z" fill="black"/>
<path d="M90.8616 83.4483H83.2754V91.0345H90.8616V83.4483Z" fill="black"/>
<path d="M106.034 83.4483H98.4482V91.0345H106.034V83.4483Z" fill="black"/>
<path d="M121.207 83.4483H113.621V91.0345H121.207V83.4483Z" fill="black"/>
<path d="M128.793 83.4483H121.207V91.0345H128.793V83.4483Z" fill="black"/>
<path d="M136.379 83.4483H128.793V91.0345H136.379V83.4483Z" fill="black"/>
<path d="M166.724 83.4483H159.138V91.0345H166.724V83.4483Z" fill="black"/>
<path d="M174.311 83.4483H166.725V91.0345H174.311V83.4483Z" fill="black"/>
<path d="M181.897 83.4483H174.311V91.0345H181.897V83.4483Z" fill="black"/>
<path d="M189.483 83.4483H181.896V91.0345H189.483V83.4483Z" fill="black"/>
<path d="M197.069 83.4483H189.482V91.0345H197.069V83.4483Z" fill="black"/>
<path d="M30.1721 91.0345H22.5859V98.6207H30.1721V91.0345Z" fill="black"/>
<path d="M37.7591 91.0345H30.1729V98.6207H37.7591V91.0345Z" fill="black"/>
<path d="M60.5169 91.0345H52.9307V98.6207H60.5169V91.0345Z" fill="black"/>
<path d="M68.1038 91.0345H60.5176V98.6207H68.1038V91.0345Z" fill="black"/>
<path d="M75.6897 91.0345H68.1035V98.6207H75.6897V91.0345Z" fill="black"/>
<path d="M83.2757 91.0345H75.6895V98.6207H83.2757V91.0345Z" fill="black"/>
<path d="M113.62 91.0345H106.034V98.6207H113.62V91.0345Z" fill="black"/>
<path d="M121.207 91.0345H113.621V98.6207H121.207V91.0345Z" fill="black"/>
<path d="M136.379 91.0345H128.793V98.6207H136.379V91.0345Z" fill="black"/>
<path d="M143.965 91.0345H136.379V98.6207H143.965V91.0345Z" fill="black"/>
<path d="M151.552 91.0345H143.966V98.6207H151.552V91.0345Z" fill="black"/>
<path d="M159.138 91.0345H151.552V98.6207H159.138V91.0345Z" fill="black"/>
<path d="M174.311 91.0345H166.725V98.6207H174.311V91.0345Z" fill="black"/>
<path d="M181.897 91.0345H174.311V98.6207H181.897V91.0345Z" fill="black"/>
<path d="M204.656 91.0345H197.069V98.6207H204.656V91.0345Z" fill="black"/>
<path d="M22.5862 98.6207H15V106.207H22.5862V98.6207Z" fill="black"/>
<path d="M30.1721 98.6207H22.5859V106.207H30.1721V98.6207Z" fill="black"/>
<path d="M83.2757 98.6207H75.6895V106.207H83.2757V98.6207Z" fill="black"/>
<path d="M90.8616 98.6207H83.2754V106.207H90.8616V98.6207Z" fill="black"/>
<path d="M136.379 98.6207H128.793V106.207H136.379V98.6207Z" fill="black"/>
<path d="M143.965 98.6207H136.379V106.207H143.965V98.6207Z" fill="black"/>
<path d="M159.138 98.6207H151.552V106.207H159.138V98.6207Z" fill="black"/>
<path d="M166.724 98.6207H159.138V106.207H166.724V98.6207Z" fill="black"/>
<path d="M181.897 98.6207H174.311V106.207H181.897V98.6207Z" fill="black"/>
<path d="M189.483 98.6207H181.896V106.207H189.483V98.6207Z" fill="black"/>
<path d="M197.069 98.6207H189.482V106.207H197.069V98.6207Z" fill="black"/>
<path d="M204.656 98.6207H197.069V106.207H204.656V98.6207Z" fill="black"/>
<path d="M52.9309 106.207H45.3447V113.793H52.9309V106.207Z" fill="black"/>
<path d="M60.5169 106.207H52.9307V113.793H60.5169V106.207Z" fill="black"/>
<path d="M68.1038 106.207H60.5176V113.793H68.1038V106.207Z" fill="black"/>
<path d="M75.6897 106.207H68.1035V113.793H75.6897V106.207Z" fill="black"/>
<path d="M83.2757 106.207H75.6895V113.793H83.2757V106.207Z" fill="black"/>
<path d="M90.8616 106.207H83.2754V113.793H90.8616V106.207Z" fill="black"/>
<path d="M98.4485 106.207H90.8623V113.793H98.4485V106.207Z" fill="black"/>
<path d="M136.379 106.207H128.793V113.793H136.379V106.207Z" fill="black"/>
<path d="M143.965 106.207H136.379V113.793H143.965V106.207Z" fill="black"/>
<path d="M159.138 106.207H151.552V113.793H159.138V106.207Z" fill="black"/>
<path d="M204.656 106.207H197.069V113.793H204.656V106.207Z" fill="black"/>
<path d="M22.5862 113.793H15V121.379H22.5862V113.793Z" fill="black"/>
<path d="M30.1721 113.793H22.5859V121.379H30.1721V113.793Z" fill="black"/>
<path d="M45.345 113.793H37.7588V121.379H45.345V113.793Z" fill="black"/>
<path d="M83.2757 113.793H75.6895V121.379H83.2757V113.793Z" fill="black"/>
<path d="M113.62 113.793H106.034V121.379H113.62V113.793Z" fill="black"/>
<path d="M121.207 113.793H113.621V121.379H121.207V113.793Z" fill="black"/>
<path d="M128.793 113.793H121.207V121.379H128.793V113.793Z" fill="black"/>
<path d="M136.379 113.793H128.793V121.379H136.379V113.793Z" fill="black"/>
<path d="M143.965 113.793H136.379V121.379H143.965V113.793Z" fill="black"/>
<path d="M151.552 113.793H143.966V121.379H151.552V113.793Z" fill="black"/>
<path d="M174.311 113.793H166.725V121.379H174.311V113.793Z" fill="black"/>
<path d="M197.069 113.793H189.482V121.379H197.069V113.793Z" fill="black"/>
<path d="M22.5862 121.379H15V128.966H22.5862V121.379Z" fill="black"/>
<path d="M30.1721 121.379H22.5859V128.966H30.1721V121.379Z" fill="black"/>
<path d="M52.9309 121.379H45.3447V128.966H52.9309V121.379Z" fill="black"/>
<path d="M60.5169 121.379H52.9307V128.966H60.5169V121.379Z" fill="black"/>
<path d="M68.1038 121.379H60.5176V128.966H68.1038V121.379Z" fill="black"/>
<path d="M75.6897 121.379H68.1035V128.966H75.6897V121.379Z" fill="black"/>
<path d="M98.4485 121.379H90.8623V128.966H98.4485V121.379Z" fill="black"/>
<path d="M136.379 121.379H128.793V128.966H136.379V121.379Z" fill="black"/>
<path d="M143.965 121.379H136.379V128.966H143.965V121.379Z" fill="black"/>
<path d="M151.552 121.379H143.966V128.966H151.552V121.379Z" fill="black"/>
<path d="M159.138 121.379H151.552V128.966H159.138V121.379Z" fill="black"/>
<path d="M174.311 121.379H166.725V128.966H174.311V121.379Z" fill="black"/>
<path d="M181.897 121.379H174.311V128.966H181.897V121.379Z" fill="black"/>
<path d="M189.483 121.379H181.896V128.966H189.483V121.379Z" fill="black"/>
<path d="M197.069 121.379H189.482V128.966H197.069V121.379Z" fill="black"/>
<path d="M204.656 121.379H197.069V128.966H204.656V121.379Z" fill="black"/>
<path d="M22.5862 128.966H15V136.552H22.5862V128.966Z" fill="black"/>
<path d="M37.7591 128.966H30.1729V136.552H37.7591V128.966Z" fill="black"/>
<path d="M45.345 128.966H37.7588V136.552H45.345V128.966Z" fill="black"/>
<path d="M52.9309 128.966H45.3447V136.552H52.9309V128.966Z" fill="black"/>
<path d="M60.5169 128.966H52.9307V136.552H60.5169V128.966Z" fill="black"/>
<path d="M75.6897 128.966H68.1035V136.552H75.6897V128.966Z" fill="black"/>
<path d="M90.8616 128.966H83.2754V136.552H90.8616V128.966Z" fill="black"/>
<path d="M113.62 128.966H106.034V136.552H113.62V128.966Z" fill="black"/>
<path d="M159.138 128.966H151.552V136.552H159.138V128.966Z" fill="black"/>
<path d="M166.724 128.966H159.138V136.552H166.724V128.966Z" fill="black"/>
<path d="M181.897 128.966H174.311V136.552H181.897V128.966Z" fill="black"/>
<path d="M189.483 128.966H181.896V136.552H189.483V128.966Z" fill="black"/>
<path d="M204.656 128.966H197.069V136.552H204.656V128.966Z" fill="black"/>
<path d="M22.5862 136.552H15V144.138H22.5862V136.552Z" fill="black"/>
<path d="M37.7591 136.552H30.1729V144.138H37.7591V136.552Z" fill="black"/>
<path d="M45.345 136.552H37.7588V144.138H45.345V136.552Z" fill="black"/>
<path d="M68.1038 136.552H60.5176V144.138H68.1038V136.552Z" fill="black"/>
<path d="M75.6897 136.552H68.1035V144.138H75.6897V136.552Z" fill="black"/>
<path d="M83.2757 136.552H75.6895V144.138H83.2757V136.552Z" fill="black"/>
<path d="M98.4485 136.552H90.8623V144.138H98.4485V136.552Z" fill="black"/>
<path d="M106.034 136.552H98.4482V144.138H106.034V136.552Z" fill="black"/>
<path d="M113.62 136.552H106.034V144.138H113.62V136.552Z" fill="black"/>
<path d="M121.207 136.552H113.621V144.138H121.207V136.552Z" fill="black"/>
<path d="M143.965 136.552H136.379V144.138H143.965V136.552Z" fill="black"/>
<path d="M151.552 136.552H143.966V144.138H151.552V136.552Z" fill="black"/>
<path d="M159.138 136.552H151.552V144.138H159.138V136.552Z" fill="black"/>
<path d="M166.724 136.552H159.138V144.138H166.724V136.552Z" fill="black"/>
<path d="M174.311 136.552H166.725V144.138H174.311V136.552Z" fill="black"/>
<path d="M189.483 136.552H181.896V144.138H189.483V136.552Z" fill="black"/>
<path d="M197.069 136.552H189.482V144.138H197.069V136.552Z" fill="black"/>
<path d="M83.2757 144.138H75.6895V151.724H83.2757V144.138Z" fill="black"/>
<path d="M90.8616 144.138H83.2754V151.724H90.8616V144.138Z" fill="black"/>
<path d="M106.034 144.138H98.4482V151.724H106.034V144.138Z" fill="black"/>
<path d="M121.207 144.138H113.621V151.724H121.207V144.138Z" fill="black"/>
<path d="M143.965 144.138H136.379V151.724H143.965V144.138Z" fill="black"/>
<path d="M174.311 144.138H166.725V151.724H174.311V144.138Z" fill="black"/>
<path d="M189.483 144.138H181.896V151.724H189.483V144.138Z" fill="black"/>
<path d="M197.069 144.138H189.482V151.724H197.069V144.138Z" fill="black"/>
<path d="M83.2757 151.724H75.6895V159.31H83.2757V151.724Z" fill="black"/>
<path d="M113.62 151.724H106.034V159.31H113.62V151.724Z" fill="black"/>
<path d="M143.965 151.724H136.379V159.31H143.965V151.724Z" fill="black"/>
<path d="M159.138 151.724H151.552V159.31H159.138V151.724Z" fill="black"/>
<path d="M174.311 151.724H166.725V159.31H174.311V151.724Z" fill="black"/>
<path d="M204.656 151.724H197.069V159.31H204.656V151.724Z" fill="black"/>
<path d="M83.2757 159.31H75.6895V166.897H83.2757V159.31Z" fill="black"/>
<path d="M90.8616 159.31H83.2754V166.897H90.8616V159.31Z" fill="black"/>
<path d="M106.034 159.31H98.4482V166.897H106.034V159.31Z" fill="black"/>
<path d="M121.207 159.31H113.621V166.897H121.207V159.31Z" fill="black"/>
<path d="M136.379 159.31H128.793V166.897H136.379V159.31Z" fill="black"/>
<path d="M143.965 159.31H136.379V166.897H143.965V159.31Z" fill="black"/>
<path d="M174.311 159.31H166.725V166.897H174.311V159.31Z" fill="black"/>
<path d="M204.656 159.31H197.069V166.897H204.656V159.31Z" fill="black"/>
<path d="M83.2757 166.897H75.6895V174.483H83.2757V166.897Z" fill="black"/>
<path d="M90.8616 166.897H83.2754V174.483H90.8616V166.897Z" fill="black"/>
<path d="M106.034 166.897H98.4482V174.483H106.034V166.897Z" fill="black"/>
<path d="M113.62 166.897H106.034V174.483H113.62V166.897Z" fill="black"/>
<path d="M128.793 166.897H121.207V174.483H128.793V166.897Z" fill="black"/>
<path d="M136.379 166.897H128.793V174.483H136.379V166.897Z" fill="black"/>
<path d="M143.965 166.897H136.379V174.483H143.965V166.897Z" fill="black"/>
<path d="M151.552 166.897H143.966V174.483H151.552V166.897Z" fill="black"/>
<path d="M159.138 166.897H151.552V174.483H159.138V166.897Z" fill="black"/>
<path d="M166.724 166.897H159.138V174.483H166.724V166.897Z" fill="black"/>
<path d="M174.311 166.897H166.725V174.483H174.311V166.897Z" fill="black"/>
<path d="M83.2757 174.483H75.6895V182.069H83.2757V174.483Z" fill="black"/>
<path d="M113.62 174.483H106.034V182.069H113.62V174.483Z" fill="black"/>
<path d="M121.207 174.483H113.621V182.069H121.207V174.483Z" fill="black"/>
<path d="M128.793 174.483H121.207V182.069H128.793V174.483Z" fill="black"/>
<path d="M136.379 174.483H128.793V182.069H136.379V174.483Z" fill="black"/>
<path d="M143.965 174.483H136.379V182.069H143.965V174.483Z" fill="black"/>
<path d="M151.552 174.483H143.966V182.069H151.552V174.483Z" fill="black"/>
<path d="M159.138 174.483H151.552V182.069H159.138V174.483Z" fill="black"/>
<path d="M197.069 174.483H189.482V182.069H197.069V174.483Z" fill="black"/>
<path d="M204.656 174.483H197.069V182.069H204.656V174.483Z" fill="black"/>
<path d="M106.034 182.069H98.4482V189.655H106.034V182.069Z" fill="black"/>
<path d="M136.379 182.069H128.793V189.655H136.379V182.069Z" fill="black"/>
<path d="M151.552 182.069H143.966V189.655H151.552V182.069Z" fill="black"/>
<path d="M174.311 182.069H166.725V189.655H174.311V182.069Z" fill="black"/>
<path d="M181.897 182.069H174.311V189.655H181.897V182.069Z" fill="black"/>
<path d="M189.483 182.069H181.896V189.655H189.483V182.069Z" fill="black"/>
<path d="M197.069 182.069H189.482V189.655H197.069V182.069Z" fill="black"/>
<path d="M204.656 182.069H197.069V189.655H204.656V182.069Z" fill="black"/>
<path d="M90.8616 189.655H83.2754V197.241H90.8616V189.655Z" fill="black"/>
<path d="M128.793 189.655H121.207V197.241H128.793V189.655Z" fill="black"/>
<path d="M151.552 189.655H143.966V197.241H151.552V189.655Z" fill="black"/>
<path d="M166.724 189.655H159.138V197.241H166.724V189.655Z" fill="black"/>
<path d="M174.311 189.655H166.725V197.241H174.311V189.655Z" fill="black"/>
<path d="M189.483 189.655H181.896V197.241H189.483V189.655Z" fill="black"/>
<path d="M197.069 189.655H189.482V197.241H197.069V189.655Z" fill="black"/>
<path d="M204.656 189.655H197.069V197.241H204.656V189.655Z" fill="black"/>
<path d="M83.2757 197.241H75.6895V204.828H83.2757V197.241Z" fill="black"/>
<path d="M90.8616 197.241H83.2754V204.828H90.8616V197.241Z" fill="black"/>
<path d="M113.62 197.241H106.034V204.828H113.62V197.241Z" fill="black"/>
<path d="M128.793 197.241H121.207V204.828H128.793V197.241Z" fill="black"/>
<path d="M143.965 197.241H136.379V204.828H143.965V197.241Z" fill="black"/>
<path d="M181.897 197.241H174.311V204.828H181.897V197.241Z" fill="black"/>
<path d="M204.656 197.241H197.069V204.828H204.656V197.241Z" fill="black"/>
<path d="M60.1379 15.1724H22.9655H15V23.1379V60.3103V68.2759H22.9655H60.1379H68.1034V60.3103V23.1379V15.1724H60.1379ZM60.1379 60.3103H22.9655V23.1379H60.1379V60.3103Z" fill="black"/>
<path d="M196.69 15.1724H159.517H151.552V23.1379V60.3103V68.2759H159.517H196.69H204.655V60.3103V23.1379V15.1724H196.69ZM196.69 60.3103H159.517V23.1379H196.69V60.3103Z" fill="black"/>
<path d="M60.1379 151.724H22.9655H15V159.69V196.862V204.828H22.9655H60.1379H68.1034V196.862V159.69V151.724H60.1379ZM60.1379 196.862H22.9655V159.69H60.1379V196.862Z" fill="black"/>
<path d="M52.9315 30.3448H30.1729V53.1034H52.9315V30.3448Z" fill="black"/>
<path d="M189.483 30.3448H166.725V53.1034H189.483V30.3448Z" fill="black"/>
<path d="M52.9315 166.897H30.1729V189.655H52.9315V166.897Z" fill="black"/>
</g>
<defs>
<clipPath id="clip0_1065_11106">
<rect width="220" height="220" fill="white"/>
</clipPath>
</defs>
</svg>
