<svg width="15" height="15" viewBox="0 0 15 15" fill="none" xmlns="http://www.w3.org/2000/svg">
<circle cx="7.5" cy="7.5" r="7.5" fill=""/>
<path d="M4.70208 7.75024C4.70204 7.34046 4.78466 6.9349 4.945 6.55779C5.10533 6.18069 5.34009 5.8398 5.63522 5.55553C5.93034 5.27125 6.27978 5.04943 6.66263 4.90333C7.04547 4.75723 7.45385 4.68986 7.86333 4.70524C7.90947 4.70693 7.95549 4.69952 7.99876 4.68343C8.04203 4.66734 8.08171 4.64288 8.11553 4.61145C8.14935 4.58002 8.17665 4.54224 8.19587 4.50027C8.21509 4.45829 8.22586 4.41294 8.22755 4.3668C8.22924 4.32066 8.22183 4.27464 8.20574 4.23137C8.18965 4.1881 8.16519 4.14842 8.13376 4.1146C8.10234 4.08078 8.06456 4.05348 8.02258 4.03426C7.9806 4.01504 7.93525 4.00427 7.88911 4.00258C7.20756 3.97728 6.53201 4.13833 5.93517 4.4684C5.33834 4.79847 4.84282 5.28506 4.50195 5.87579C4.16108 6.46652 3.98777 7.13903 4.00067 7.82093C4.01357 8.50283 4.2122 9.16831 4.57516 9.74572C4.93813 10.3231 5.4517 10.7906 6.06059 11.0979C6.66949 11.4052 7.35064 11.5405 8.03075 11.4895C8.71086 11.4384 9.36417 11.2028 9.92036 10.8081C10.4765 10.4134 10.9146 9.87444 11.1872 9.2493C11.2245 9.16383 11.2263 9.06704 11.1923 8.98023C11.1582 8.89343 11.0911 8.8237 11.0056 8.78641C10.9201 8.74911 10.8233 8.7473 10.7365 8.78136C10.6497 8.81542 10.58 8.88258 10.5427 8.96805C10.511 9.04009 10.4766 9.11092 10.4396 9.18039C10.1205 9.78083 9.60981 10.2573 8.9887 10.534C8.36759 10.8106 7.67178 10.8716 7.01203 10.7071C6.35227 10.5427 5.76648 10.1623 5.34789 9.62644C4.92931 9.09062 4.70197 8.43018 4.70208 7.75024ZM9.02677 4.58055C9.07039 4.49823 9.1449 4.4366 9.23393 4.40917C9.32296 4.38175 9.41924 4.39079 9.50161 4.4343C9.58458 4.47836 9.66567 4.52524 9.74442 4.57493C9.78351 4.59952 9.81737 4.63157 9.84408 4.66925C9.87078 4.70693 9.8898 4.74949 9.90005 4.79452C9.9103 4.83955 9.91158 4.88616 9.90382 4.93168C9.89606 4.97721 9.87941 5.02076 9.85481 5.05985C9.83022 5.09894 9.79817 5.1328 9.76049 5.1595C9.72281 5.1862 9.68025 5.20522 9.63522 5.21547C9.59019 5.22572 9.54358 5.22701 9.49806 5.21924C9.45253 5.21148 9.40898 5.19483 9.36989 5.17024C9.30571 5.12968 9.24004 5.09153 9.17302 5.05586C9.1322 5.03426 9.09603 5.00484 9.06659 4.96926C9.03715 4.93368 9.015 4.89265 9.00142 4.84851C8.98784 4.80437 8.98309 4.75798 8.98744 4.71201C8.99178 4.66603 9.00515 4.62136 9.02677 4.58055ZM10.4396 5.64461C10.5185 5.59497 10.6138 5.57869 10.7047 5.59935C10.7956 5.62 10.8746 5.67591 10.9243 5.75477C10.974 5.83352 11.0208 5.91414 11.0649 5.99758C11.0865 6.03839 11.0999 6.08306 11.1042 6.12904C11.1085 6.17501 11.1038 6.22139 11.0902 6.26553C11.0766 6.30966 11.0545 6.35069 11.025 6.38627C10.9956 6.42185 10.9595 6.45129 10.9186 6.47289C10.8778 6.4945 10.8332 6.50786 10.7872 6.5122C10.7412 6.51654 10.6948 6.51179 10.6507 6.49821C10.6066 6.48463 10.5655 6.46249 10.53 6.43305C10.4944 6.40361 10.4649 6.36746 10.4433 6.32664C10.4079 6.25945 10.3699 6.19363 10.3294 6.1293C10.2798 6.05041 10.2635 5.95504 10.2842 5.86415C10.3048 5.77326 10.3607 5.6943 10.4396 5.64461ZM11.1319 7.27164C11.1781 7.26995 11.2241 7.27736 11.2674 7.29345C11.3106 7.30955 11.3503 7.334 11.3841 7.36543C11.4179 7.39686 11.4452 7.43464 11.4645 7.47661C11.4837 7.51859 11.4945 7.56394 11.4961 7.61008C11.4994 7.69629 11.4997 7.7826 11.4971 7.86883C11.4942 7.96207 11.4543 8.05033 11.3863 8.1142C11.3183 8.17806 11.2277 8.2123 11.1345 8.20938C11.0413 8.20646 10.953 8.16661 10.8891 8.09862C10.8253 8.03062 10.791 7.94004 10.794 7.8468C10.7963 7.77651 10.7963 7.70615 10.794 7.63586C10.7905 7.54276 10.8242 7.45211 10.8876 7.38382C10.9509 7.31553 11.0388 7.27518 11.1319 7.27164Z" fill="white"/>
<path d="M7.63184 5.40649C7.72508 5.40649 7.8145 5.44353 7.88043 5.50946C7.94636 5.5754 7.9834 5.66482 7.9834 5.75806V7.53274L8.96074 8.02165C9.00241 8.04205 9.03963 8.0705 9.07026 8.10536C9.10088 8.14021 9.12431 8.18078 9.13918 8.22473C9.15405 8.26868 9.16007 8.31514 9.1569 8.36143C9.15372 8.40772 9.14142 8.45293 9.1207 8.49444C9.09997 8.53595 9.07123 8.57295 9.03614 8.6033C9.00105 8.63365 8.9603 8.65676 8.91623 8.67129C8.87217 8.68581 8.82566 8.69148 8.7794 8.68794C8.73314 8.68441 8.68803 8.67176 8.64668 8.65071L7.4748 8.06477C7.41636 8.0356 7.3672 7.99071 7.33284 7.93516C7.29848 7.8796 7.28028 7.81557 7.28027 7.75024V5.75806C7.28027 5.66482 7.31731 5.5754 7.38324 5.50946C7.44917 5.44353 7.5386 5.40649 7.63184 5.40649Z" fill="white"/>
</svg>
