<svg width="13" height="13" viewBox="0 0 13 13" fill="none" xmlns="http://www.w3.org/2000/svg">
<circle cx="6.5" cy="6.5" r="6.5" fill="white"/>
<path d="M4.07527 6.71676C4.07524 6.36162 4.14684 6.01013 4.2858 5.68331C4.42475 5.35648 4.62821 5.06105 4.88398 4.81468C5.13976 4.56831 5.44261 4.37606 5.77441 4.24944C6.1062 4.12282 6.46013 4.06443 6.81502 4.07776C6.855 4.07923 6.89488 4.0728 6.93239 4.05886C6.96989 4.04491 7.00428 4.02371 7.03359 3.99648C7.0629 3.96924 7.08656 3.9365 7.10322 3.90012C7.11988 3.86374 7.12921 3.82443 7.13067 3.78445C7.13214 3.74446 7.12572 3.70458 7.11177 3.66707C7.09782 3.62957 7.07663 3.59518 7.04939 3.56587C7.02215 3.53656 6.98941 3.5129 6.95303 3.49624C6.91665 3.47959 6.87735 3.47026 6.83736 3.46879C6.24668 3.44686 5.6612 3.58644 5.14395 3.8725C4.62669 4.15856 4.19724 4.58027 3.90182 5.09224C3.6064 5.6042 3.4562 6.18705 3.46738 6.77803C3.47856 7.36901 3.6507 7.94575 3.96527 8.44618C4.27985 8.94661 4.72494 9.35177 5.25264 9.61806C5.78035 9.88435 6.37069 10.0017 6.96012 9.95743C7.54955 9.91318 8.11575 9.70901 8.59777 9.36691C9.0798 9.02481 9.45941 8.55773 9.69573 8.01595C9.72806 7.94187 9.72963 7.85799 9.70011 7.78276C9.67059 7.70752 9.61239 7.6471 9.53831 7.61477C9.46424 7.58245 9.38036 7.58088 9.30512 7.6104C9.22989 7.63992 9.16946 7.69812 9.13714 7.7722C9.10966 7.83463 9.07985 7.89602 9.04777 7.95623C8.77126 8.47661 8.32863 8.88955 7.79033 9.12932C7.25204 9.36909 6.64901 9.42192 6.07722 9.2794C5.50543 9.13687 4.99775 8.80718 4.63497 8.3428C4.2722 7.87842 4.07517 7.30604 4.07527 6.71676ZM7.82333 3.9697C7.86113 3.89836 7.92571 3.84494 8.00287 3.82117C8.08003 3.7974 8.16347 3.80524 8.23486 3.84295C8.30677 3.88113 8.37705 3.92176 8.4453 3.96482C8.47917 3.98613 8.50852 4.01391 8.53166 4.04657C8.55481 4.07922 8.57129 4.11611 8.58017 4.15514C8.58906 4.19417 8.59017 4.23456 8.58344 4.27401C8.57671 4.31347 8.56228 4.35121 8.54097 4.38509C8.51966 4.41896 8.49188 4.44831 8.45922 4.47145C8.42657 4.4946 8.38968 4.51108 8.35065 4.51996C8.31163 4.52885 8.27123 4.52996 8.23178 4.52323C8.19232 4.5165 8.15458 4.50207 8.1207 4.48076C8.06508 4.44561 8.00817 4.41254 7.95008 4.38163C7.9147 4.36292 7.88336 4.33741 7.85784 4.30658C7.83232 4.27574 7.81313 4.24018 7.80136 4.20192C7.78959 4.16367 7.78547 4.12347 7.78924 4.08362C7.79301 4.04378 7.80459 4.00507 7.82333 3.9697ZM9.04777 4.89188C9.11614 4.84886 9.19879 4.83475 9.27756 4.85265C9.35633 4.87056 9.42477 4.91901 9.46783 4.98735C9.51089 5.0556 9.55152 5.12548 9.5897 5.19779C9.60843 5.23316 9.62001 5.27187 9.62377 5.31172C9.62753 5.35156 9.62341 5.39176 9.61164 5.43001C9.59987 5.46826 9.58069 5.50382 9.55517 5.53466C9.52966 5.56549 9.49832 5.591 9.46295 5.60973C9.42758 5.62845 9.38887 5.64003 9.34903 5.64379C9.30918 5.64756 9.26899 5.64344 9.23073 5.63167C9.19248 5.6199 9.15692 5.60071 9.12609 5.5752C9.09525 5.54968 9.06974 5.51835 9.05102 5.48298C9.02027 5.42475 8.98734 5.3677 8.9523 5.31195C8.90928 5.24358 8.89517 5.16092 8.91307 5.08215C8.93097 5.00338 8.97942 4.93494 9.04777 4.89188ZM9.6478 6.30198C9.68778 6.30051 9.72767 6.30693 9.76517 6.32088C9.80267 6.33483 9.83706 6.35602 9.86637 6.38326C9.89568 6.41049 9.91934 6.44324 9.936 6.47962C9.95266 6.516 9.96199 6.5553 9.96345 6.59529C9.96629 6.67001 9.96656 6.7448 9.96427 6.81954C9.96173 6.90035 9.92721 6.97684 9.86827 7.03219C9.80934 7.08754 9.73084 7.11721 9.65003 7.11468C9.56922 7.11215 9.49273 7.07762 9.43738 7.01869C9.38203 6.95976 9.35236 6.88125 9.35489 6.80045C9.35693 6.73953 9.35693 6.67855 9.35489 6.61763C9.35193 6.53695 9.38111 6.45838 9.43603 6.3992C9.49095 6.34001 9.56711 6.30504 9.6478 6.30198Z" fill="#00C2C1"/>
<path d="M6.61426 4.68555C6.69507 4.68555 6.77256 4.71765 6.8297 4.77479C6.88684 4.83193 6.91895 4.90943 6.91895 4.99023V6.5283L7.76598 6.95202C7.80209 6.9697 7.83435 6.99435 7.86089 7.02456C7.88743 7.05477 7.90773 7.08993 7.92062 7.12802C7.93351 7.16611 7.93873 7.20638 7.93598 7.24649C7.93323 7.28661 7.92257 7.32579 7.9046 7.36177C7.88664 7.39774 7.86174 7.42981 7.83132 7.45611C7.80091 7.48242 7.76559 7.50244 7.7274 7.51503C7.68921 7.52762 7.64891 7.53253 7.60881 7.52947C7.56872 7.52641 7.52963 7.51544 7.49379 7.4972L6.47816 6.98939C6.42751 6.9641 6.38491 6.9252 6.35513 6.87705C6.32535 6.8289 6.30957 6.77341 6.30957 6.7168V4.99023C6.30957 4.90943 6.34167 4.83193 6.39881 4.77479C6.45595 4.71765 6.53345 4.68555 6.61426 4.68555Z" fill="#00C2C1"/>
</svg>
