<svg width="10" height="12" viewBox="0 0 10 12" fill="none" xmlns="http://www.w3.org/2000/svg">
<path d="M8.33847 8.18087L8.32795 8.15984C7.79167 7.22399 7.07664 6.6141 6.31954 6.24607C7.07664 5.86752 7.78116 5.26815 8.32795 4.33229L8.33847 4.31126C8.87474 3.38592 9.23226 2.12409 9.29535 0.44165H8.67495C8.62238 1.99791 8.2964 3.15458 7.80219 4.00632L7.79167 4.01683C7.18179 5.09991 6.4983 5.67824 5.61502 5.95164L5.57296 5.96216H5.56244C5.54141 5.97267 5.5309 5.98319 5.50986 5.9937L5.49935 6.00422L5.47832 6.02525L5.45729 6.04628V6.05679C5.44677 6.06731 5.43626 6.08834 5.42574 6.10937L5.41523 6.11988L5.3942 6.19349V6.30916L5.41523 6.38276L5.42574 6.39328C5.43626 6.41431 5.44677 6.42483 5.45729 6.44586V6.45637L5.47832 6.4774V6.46689L5.49935 6.4774L5.50986 6.48792C5.52038 6.49843 5.54141 6.50895 5.56244 6.51946H5.57296L5.61502 6.54049C6.50881 6.82441 7.18179 7.39223 7.80219 8.46478L7.8127 8.48581C8.07559 8.92745 8.27537 9.46373 8.4331 10.0841C8.46465 10.2629 8.58032 10.652 8.60135 11.1567C8.10713 10.715 6.74015 10.3996 5.09977 10.3786V5.52051C5.1208 5.52051 5.13132 5.51 5.15235 5.49948V5.48897L5.23647 5.45742H5.2575C5.85687 5.26815 6.33005 4.97372 6.72963 4.58466C7.15024 4.16405 7.47622 3.6488 7.69704 3.07046C7.76013 2.91273 7.68652 2.73397 7.51828 2.67088C7.36055 2.60779 7.18179 2.6814 7.1187 2.83913V2.84964C6.92942 3.33334 6.65603 3.7855 6.29851 4.14302C5.97254 4.45848 5.58347 4.71084 5.08926 4.85805L5.07874 4.86857L5.04719 4.87908L4.99462 4.8896L4.96307 4.87908L4.94204 4.86857L4.9105 4.85805C4.4268 4.70033 4.0167 4.45848 3.70124 4.14302C3.33321 3.7855 3.07033 3.34386 2.88105 2.84964C2.81796 2.69191 2.6392 2.60779 2.49199 2.67088C2.33426 2.73397 2.26065 2.90222 2.31323 3.07046C2.53405 3.6488 2.84951 4.16405 3.28063 4.58466C3.6697 4.97372 4.1534 5.26815 4.74225 5.45742H4.75277L4.83689 5.48897L4.85792 5.49948C4.86844 5.51 4.87895 5.51 4.89998 5.52051V10.3786C3.36475 10.3786 2.02932 10.6414 1.3984 11.0095C1.41943 10.7571 1.47201 10.4837 1.56665 10.0841C1.72438 9.45322 1.93468 8.92745 2.18705 8.48581L2.19756 8.46478C2.81796 7.39223 3.49094 6.82441 4.39525 6.54049L4.42679 6.51946H4.43731C4.45834 6.50895 4.46886 6.49843 4.48989 6.48792L4.5004 6.4774L4.52143 6.46689V6.45637L4.54246 6.43534V6.42483C4.55298 6.41431 4.56349 6.39328 4.57401 6.37225V6.36173C4.58452 6.3407 4.59504 6.30916 4.59504 6.28813V6.18298C4.59504 6.16195 4.58452 6.1304 4.57401 6.10937V6.09885C4.56349 6.07782 4.55298 6.05679 4.54246 6.04628V6.03576L4.52143 6.01473L4.5004 5.9937L4.46886 6.00422C4.44782 5.9937 4.43731 5.98319 4.41628 5.97267H4.40576L4.37422 5.96216C3.48042 5.68876 2.79693 5.11042 2.17653 4.02735L2.16602 4.01683C1.68232 3.1651 1.35634 2.00842 1.29325 0.452166H0.672852C0.735943 2.13461 1.09346 3.38592 1.62974 4.32178L1.64025 4.34281C2.17653 5.27866 2.89157 5.87803 3.64867 6.25658C2.89157 6.62462 2.18705 7.2345 1.64025 8.17036L1.62974 8.19139C1.12501 9.07467 0.767489 10.2524 0.693882 11.8191H9.27432C9.20072 10.2419 8.85371 9.06415 8.33847 8.18087Z" fill="#00C2C1"/>
</svg>
